<?xml version="1.0" encoding="UTF-8"?>
<svg version="1.1" xmlns="http://www.w3.org/2000/svg" width="500" height="500">
<path d="M0 0 C7.79360698 5.38130006 8.90329071 15.98273977 10.54882812 24.68701172 C13.48269592 41.11053592 15.09418565 57.69800765 16.7109375 74.29296875 C16.83267334 75.48954102 16.95440918 76.68611328 17.07983398 77.91894531 C17.31008351 80.18403481 17.5292364 82.45029395 17.73461914 84.71777344 C18.41253422 91.31607873 19.82215031 97.18630959 22.08227539 103.42602539 C22.8609429 105.60998165 23.48642194 107.74191859 24 110 C26.31 110.33 28.62 110.66 31 111 C34.96063857 105.35423517 37.20113288 100.03020885 38.9375 93.3828125 C39.18491943 92.48561493 39.43233887 91.58841736 39.68725586 90.66403198 C40.47046736 87.82087413 41.23694843 84.97362915 42 82.125 C50.15635439 51.78935748 50.15635439 51.78935748 58 46 C62.1594591 44.714349 64.12784786 44.61625306 68.125 46.375 C83.57712729 60.48346405 84.13122911 92.58034232 88 112 C90.22889496 112.05428973 92.45817471 112.09292338 94.6875 112.125 C95.92886719 112.14820313 97.17023438 112.17140625 98.44921875 112.1953125 C101.90152088 112.00541689 104.04707488 111.77707566 107 110 C108.20657275 107.65327792 108.20657275 107.65327792 109 105 C112.36159718 99.15417265 115.81884371 94.09057814 122 91 C128.49632312 90.43997215 132.43122058 91.68242928 138 95 C138 95.66 138 96.32 138 97 C138.56203125 97.23074219 139.1240625 97.46148437 139.703125 97.69921875 C143.5236597 99.86288891 146.18912175 103.21453142 149.171875 106.39453125 C156.19506417 112.86478978 161.52332433 114.74504815 171.0625 114.70703125 C172.6103418 114.72971321 172.6103418 114.72971321 174.18945312 114.75285339 C177.45986049 114.79557111 180.72934199 114.80455333 184 114.8125 C186.22788892 114.83565657 188.45575603 114.86102431 190.68359375 114.88867188 C196.12240477 114.95136658 201.56085633 114.98642708 207 115 C207.04254356 116.99954746 207.04080783 119.00041636 207 121 C206 122 206 122 204.09353638 122.10438538 C203.25845551 122.09580002 202.42337463 122.08721466 201.56298828 122.07836914 C200.61755157 122.07249283 199.67211487 122.06661652 198.69802856 122.06056213 C197.14980911 122.04798622 197.14980911 122.04798622 195.5703125 122.03515625 C193.39062029 122.03887311 191.21093096 122.04480604 189.03125 122.05273438 C185.59007445 122.06324365 182.15095981 122.06279137 178.70996094 122.02416992 C162.07434192 121.3091106 162.07434192 121.3091106 148.01123047 128.89233398 C147.01567139 129.93562866 147.01567139 129.93562866 146 131 C141.12382713 135.19197496 138.48521292 135.59400631 132.1484375 135.40625 C128.09000378 134.88258113 124.74144434 133.61664363 121.05859375 131.875 C118.91264832 130.80441119 118.91264832 130.80441119 116 131 C115.62488281 132.11117187 115.24976563 133.22234375 114.86328125 134.3671875 C106.26970881 159.4868608 106.26970881 159.4868608 98 165 C93.49950481 165.80064989 90.06462561 165.7258811 86.25 163.125 C80.60746283 155.28814281 78.14347124 147.45347822 76.1875 138.125 C75.31313846 134.88917252 75.31313846 134.88917252 72.77734375 133.578125 C69.6347465 132.92396973 66.7738031 132.73487019 63.5625 132.75 C61.92474609 132.74226563 61.92474609 132.74226563 60.25390625 132.734375 C56.88298422 133.00955231 54.15124375 133.80224219 51 135 C50.84966309 136.06976074 50.84966309 136.06976074 50.69628906 137.16113281 C43.1477654 190.48006979 43.1477654 190.48006979 34 201 C30.80896653 203.36754096 27.9055464 203.47823017 24 203 C15.28818887 197.12490515 13.48786867 186.26689347 11.45776367 176.50585938 C8.81432375 162.58419318 6 147.18294028 6 133 C-0.6 133 -7.2 133 -14 133 C-14.11730469 135.63097656 -14.23460937 138.26195312 -14.35546875 140.97265625 C-14.8957743 151.77175646 -15.89540063 162.51467811 -16.99194336 173.26977539 C-17.31169696 176.42956436 -17.6160541 179.59060197 -17.91992188 182.75195312 C-18.8921636 192.56134986 -20.05004248 202.28932873 -21.91796875 211.97265625 C-22.06470535 212.75652206 -22.21144196 213.54038788 -22.36262512 214.3480072 C-23.72689812 220.96585866 -25.71976628 227.53974783 -30.375 232.5625 C-33.62326168 234.34130997 -35.34720054 234.60879991 -39 234 C-44.04632991 231.47683505 -45.26772264 227.48838029 -47.0078125 222.4375 C-49.45365331 213.96372081 -51.44313557 205.46223185 -52.8125 196.75 C-52.97137695 195.75363525 -53.13025391 194.75727051 -53.29394531 193.73071289 C-56.34358013 173.8924109 -58.58057567 153.92275735 -61 134 C-64.35937386 133.09584672 -67.32291886 132.86604087 -70.8125 132.875 C-71.80894531 132.87242187 -72.80539063 132.86984375 -73.83203125 132.8671875 C-77.27366872 133.01147316 -80.59945046 133.46239744 -84 134 C-84.23074219 135.11117187 -84.46148437 136.22234375 -84.69921875 137.3671875 C-86.78726093 147.03852037 -89.29286371 155.23334354 -94.6875 163.625 C-98.62698891 165.96739881 -102.56416989 165.76746902 -107 165 C-118.04065597 159.0550314 -121.26809629 142.16924372 -125 131 C-126.41805831 131.28482368 -127.83440379 131.57818144 -129.25 131.875 C-130.03890625 132.03742188 -130.8278125 132.19984375 -131.640625 132.3671875 C-133.99452891 132.90530671 -133.99452891 132.90530671 -135.94921875 134.02734375 C-140.44109934 136.15777854 -145.21200859 135.96913561 -150 135 C-153.18513566 133.01234501 -155.79020403 130.825465 -158.52734375 128.26171875 C-164.64170587 122.66896098 -169.34912125 122.54800483 -177.390625 122.5234375 C-178.49098083 122.50785797 -179.59133667 122.49227844 -180.72503662 122.47622681 C-184.23335087 122.42874984 -187.74146602 122.40094643 -191.25 122.375 C-194.77267718 122.3385552 -198.29524034 122.29801013 -201.81781006 122.25234985 C-204.00902642 122.22504065 -206.20032682 122.2037256 -208.3916626 122.18881226 C-209.37648621 122.17855011 -210.36130981 122.16828796 -211.37597656 122.15771484 C-212.24691956 122.15121918 -213.11786255 122.14472351 -214.01519775 122.13803101 C-216 122 -216 122 -217 121 C-217.125 118.5 -217.125 118.5 -217 116 C-215.42856606 114.42856606 -213.8652833 114.86750947 -211.68310547 114.8581543 C-210.7647995 114.85111984 -209.84649353 114.84408539 -208.90036011 114.83683777 C-207.89941315 114.83267349 -206.89846619 114.82850922 -205.8671875 114.82421875 C-203.7604068 114.80100875 -201.65363595 114.77689095 -199.546875 114.75195312 C-196.21575458 114.71690676 -192.88499282 114.6875404 -189.55371094 114.67407227 C-186.34525601 114.65855056 -183.1378609 114.61829748 -179.9296875 114.57421875 C-178.44648514 114.57708138 -178.44648514 114.57708138 -176.93331909 114.58000183 C-169.42888625 114.44795678 -165.19376305 112.86128929 -159.5234375 107.78125 C-158.81445312 107.0284375 -158.10546875 106.275625 -157.375 105.5 C-154.39920923 102.42281943 -151.52750462 99.45856383 -148 97 C-147.34 97 -146.68 97 -146 97 C-146 96.34 -146 95.68 -146 95 C-140.93645099 92.05393512 -137.01293288 90.12539158 -131 91 C-124.52255118 93.42904331 -122.10330739 97.36449162 -118.67578125 103.24609375 C-115.3905958 108.86054005 -115.3905958 108.86054005 -110 112 C-108.14772748 112.09357692 -106.2921282 112.12993909 -104.4375 112.125 C-102.98150391 112.12886719 -102.98150391 112.12886719 -101.49609375 112.1328125 C-99.00047047 112.16650953 -99.00047047 112.16650953 -97 111 C-96.27043287 108.55686972 -95.66886425 106.17342089 -95.125 103.6875 C-94.95282959 102.93275391 -94.78065918 102.17800781 -94.60327148 101.40039062 C-93.49181077 96.45517387 -92.50157736 91.49137461 -91.54663086 86.51391602 C-85.31323767 54.14616528 -85.31323767 54.14616528 -76 46 C-71.87397231 44.83225631 -69.80298786 44.63062558 -65.875 46.4375 C-60.20905482 51.48758158 -57.30971237 57.92612662 -55.0625 65.0625 C-54.81435547 65.82127441 -54.56621094 66.58004883 -54.31054688 67.36181641 C-52.25795128 73.79750499 -50.62832512 80.3217635 -49 86.875 C-46.02617846 99.90045044 -46.02617846 99.90045044 -39 111 C-37.33382885 111.04063832 -35.66611905 111.042721 -34 111 C-33.36967867 109.79443396 -32.7460503 108.58536811 -32.125 107.375 C-31.60292969 106.36566406 -31.60292969 106.36566406 -31.0703125 105.3359375 C-28.70363312 100.17070295 -27.63628565 95.24362759 -27 89.609375 C-26.91946884 88.91182602 -26.83893768 88.21427704 -26.75596619 87.49559021 C-26.49793343 85.24770123 -26.24893584 82.99891277 -26 80.75 C-25.82293735 79.19565204 -25.64528216 77.64137146 -25.46704102 76.0871582 C-24.67397387 69.14415482 -23.90839384 62.19827026 -23.16064453 55.25024414 C-18.23160117 9.68625356 -18.23160117 9.68625356 -10 1 C-6.31396089 -1.2481189 -4.17135846 -1.27694647 0 0 Z " fill="#FB9B15" transform="translate(256,132)"/>
<path d="M0 0 C7.9077679 4.7070047 9.73347176 13.70292477 11.859375 22.0546875 C15.2998569 36.61105364 18.07797616 51.33262779 21 66 C23.22889496 66.05428973 25.45817471 66.09292338 27.6875 66.125 C28.92886719 66.14820313 30.17023438 66.17140625 31.44921875 66.1953125 C34.90152088 66.00541689 37.04707488 65.77707566 40 64 C41.20657275 61.65327792 41.20657275 61.65327792 42 59 C45.36159718 53.15417265 48.81884371 48.09057814 55 45 C61.49632312 44.43997215 65.43122058 45.68242928 71 49 C71 49.66 71 50.32 71 51 C71.56203125 51.23074219 72.1240625 51.46148437 72.703125 51.69921875 C76.5236597 53.86288891 79.18912175 57.21453142 82.171875 60.39453125 C89.19506417 66.86478978 94.52332433 68.74504815 104.0625 68.70703125 C105.6103418 68.72971321 105.6103418 68.72971321 107.18945312 68.75285339 C110.45986049 68.79557111 113.72934199 68.80455333 117 68.8125 C119.22788892 68.83565657 121.45575603 68.86102431 123.68359375 68.88867188 C129.12240477 68.95136658 134.56085633 68.98642708 140 69 C140.04254356 70.99954746 140.04080783 73.00041636 140 75 C139 76 139 76 137.09353638 76.10438538 C136.25845551 76.09580002 135.42337463 76.08721466 134.56298828 76.07836914 C133.61755157 76.07249283 132.67211487 76.06661652 131.69802856 76.06056213 C130.14980911 76.04798622 130.14980911 76.04798622 128.5703125 76.03515625 C126.39062029 76.03887311 124.21093096 76.04480604 122.03125 76.05273438 C118.59007445 76.06324365 115.15095981 76.06279137 111.70996094 76.02416992 C95.07434192 75.3091106 95.07434192 75.3091106 81.01123047 82.89233398 C80.34752441 83.58786377 79.68381836 84.28339355 79 85 C74.12382713 89.19197496 71.48521292 89.59400631 65.1484375 89.40625 C61.09000378 88.88258113 57.74144434 87.61664363 54.05859375 85.875 C51.91264832 84.80441119 51.91264832 84.80441119 49 85 C48.62488281 86.11117187 48.24976563 87.22234375 47.86328125 88.3671875 C39.26970881 113.4868608 39.26970881 113.4868608 31 119 C26.49950481 119.80064989 23.06462561 119.7258811 19.25 117.125 C13.60746283 109.28814281 11.14347124 101.45347822 9.1875 92.125 C8.31313846 88.88917252 8.31313846 88.88917252 5.77734375 87.578125 C2.6347465 86.92396973 -0.2261969 86.73487019 -3.4375 86.75 C-4.52933594 86.74484375 -5.62117188 86.7396875 -6.74609375 86.734375 C-10.11701578 87.00955231 -12.84875625 87.80224219 -16 89 C-16.10022461 89.71317383 -16.20044922 90.42634766 -16.30371094 91.16113281 C-22.72978906 136.55168464 -22.72978906 136.55168464 -28 148 C-28.66 148.33 -29.32 148.66 -30 149 C-30.33 148.01 -30.66 147.02 -31 146 C-31.61875 145.9175 -32.2375 145.835 -32.875 145.75 C-35 145 -35 145 -36.625 142 C-39.92133423 133.21344655 -40.98893493 123.59896126 -42.4375 114.375 C-42.60032974 113.34019501 -42.60032974 113.34019501 -42.76644897 112.28448486 C-44.41983386 101.6764939 -45.76711648 91.05978236 -46.8125 80.375 C-46.93616943 79.13927246 -47.05983887 77.90354492 -47.18725586 76.63037109 C-47.94668834 68.38653898 -48.13510785 60.27555337 -48 52 C-46.20931427 54.6860286 -45.33944209 56.6626589 -44.375 59.6875 C-44.11460937 60.49574219 -43.85421875 61.30398437 -43.5859375 62.13671875 C-43.39257812 62.75160156 -43.19921875 63.36648437 -43 64 C-40.69 64.33 -38.38 64.66 -36 65 C-32.03936143 59.35423517 -29.79886712 54.03020885 -28.0625 47.3828125 C-27.81508057 46.48561493 -27.56766113 45.58841736 -27.31274414 44.66403198 C-26.52953264 41.82087413 -25.76305157 38.97362915 -25 36.125 C-17.05353409 6.56998834 -17.05353409 6.56998834 -9 0 C-5.39965901 -1.20011366 -3.65462165 -0.95020163 0 0 Z " fill="#FB8312" transform="translate(323,178)"/>
<path d="M0 0 C3.37462715 0.54723683 5.08235 1.0549 8 3 C8.6875 6.125 8.6875 6.125 9 9 C9.66 9 10.32 9 11 9 C11.33 10.98 11.66 12.96 12 15 C12.66 15 13.32 15 14 15 C16.93649455 30.46314511 19.02422234 45.90297631 20.63671875 61.55615234 C20.99723152 64.97375527 21.38422384 68.38724072 21.78125 71.80078125 C23.07311752 82.93912164 24.22707088 94.06739842 25.0625 105.25 C25.14338867 106.33079834 25.22427734 107.41159668 25.30761719 108.52514648 C25.61175476 112.63441754 25.91318638 116.74378106 26.19726562 120.85449219 C27.06285595 133.22194184 28.54001779 145.43968184 30.4375 157.6875 C30.54091705 158.36323059 30.64433411 159.03896118 30.75088501 159.73516846 C32.29413975 175.38387844 32.29413975 175.38387844 39 189 C39.99 189.33 40.98 189.66 42 190 C42.3125 192.1875 42.3125 192.1875 42 195 C38.95196567 198.52930291 36.87946018 200.79117109 32.1875 201.3125 C28.18846015 200.92043727 26.90955045 199.71558042 24 197 C10.70518028 175.34637764 11.77029416 142.1742839 10.08959961 117.63793945 C9.38860657 107.49293781 8.4435161 97.41016077 7.26553345 87.30990601 C6.51026355 80.73972625 5.82779129 74.16127783 5.14013672 67.58374023 C4.96203606 65.89014403 4.78166371 64.1967853 4.59912109 62.50366211 C3.68610748 54.02625777 2.88045882 45.73553784 3.05029297 37.19848633 C2.97758537 34.02017603 2.17254577 31.29838775 1.125 28.3125 C0.76148438 27.22453125 0.39796875 26.1365625 0.0234375 25.015625 C-0.31429687 24.02046875 -0.65203125 23.0253125 -1 22 C-2.40325238 17.2813711 -3.24786441 12.95728817 -3 8 C-2.34 8 -1.68 8 -1 8 C-1.020625 7.05125 -1.04125 6.1025 -1.0625 5.125 C-1 2 -1 2 0 0 Z " fill="#FCB714" transform="translate(251,134)"/>
<path d="M0 0 C4.21719492 2.63456222 6.36983602 6.72189642 8.82421875 10.93359375 C12.1094042 16.54804005 12.1094042 16.54804005 17.5 19.6875 C19.35227252 19.78107692 21.2078718 19.81743909 23.0625 19.8125 C24.51849609 19.81636719 24.51849609 19.81636719 26.00390625 19.8203125 C28.49952953 19.85400953 28.49952953 19.85400953 30.5 18.6875 C31.63350534 16.67080173 31.63350534 16.67080173 32.5 14.6875 C31.99063419 22.26822401 30.86305557 29.48309102 29.125 36.875 C28.81175781 38.27395508 28.81175781 38.27395508 28.4921875 39.70117188 C27.21717334 45.23271198 25.61691838 50.41996333 23.5 55.6875 C22.84 55.6875 22.18 55.6875 21.5 55.6875 C21.17 58.3275 20.84 60.9675 20.5 63.6875 C19.015 64.1825 19.015 64.1825 17.5 64.6875 C16.84 64.3575 16.18 64.0275 15.5 63.6875 C15.5 64.6775 15.5 65.6675 15.5 66.6875 C16.82 66.6875 18.14 66.6875 19.5 66.6875 C19.9125 67.326875 20.325 67.96625 20.75 68.625 C22.83929804 71.08738698 23.57984069 71.07157175 26.6875 71.4375 C27.945625 71.52 29.20375 71.6025 30.5 71.6875 C30.5 72.0175 30.5 72.3475 30.5 72.6875 C25.52439321 73.12999468 21.72472318 73.34696633 17.25 70.9375 C9.13232449 62.72861466 6.0743497 49.3851991 2.5 38.6875 C1.08194169 38.97232368 -0.33440379 39.26568144 -1.75 39.5625 C-2.53890625 39.72492188 -3.3278125 39.88734375 -4.140625 40.0546875 C-6.49452891 40.59280671 -6.49452891 40.59280671 -8.44921875 41.71484375 C-12.94109934 43.84527854 -17.71200859 43.65663561 -22.5 42.6875 C-25.68513566 40.69984501 -28.29020403 38.512965 -31.02734375 35.94921875 C-37.14170587 30.35646098 -41.84912125 30.23550483 -49.890625 30.2109375 C-51.54115875 30.18756821 -51.54115875 30.18756821 -53.22503662 30.16372681 C-56.73335087 30.11624984 -60.24146602 30.08844643 -63.75 30.0625 C-67.27267718 30.0260552 -70.79524034 29.98551013 -74.31781006 29.93984985 C-76.50902642 29.91254065 -78.70032682 29.8912256 -80.8916626 29.87631226 C-81.87648621 29.86605011 -82.86130981 29.85578796 -83.87597656 29.84521484 C-84.74691956 29.83871918 -85.61786255 29.83222351 -86.51519775 29.82553101 C-88.5 29.6875 -88.5 29.6875 -89.5 28.6875 C-89.625 26.1875 -89.625 26.1875 -89.5 23.6875 C-87.92856606 22.11606606 -86.3652833 22.55500947 -84.18310547 22.5456543 C-83.2647995 22.53861984 -82.34649353 22.53158539 -81.40036011 22.52433777 C-80.39941315 22.52017349 -79.39846619 22.51600922 -78.3671875 22.51171875 C-76.2604068 22.48850875 -74.15363595 22.46439095 -72.046875 22.43945312 C-68.71575458 22.40440676 -65.38499282 22.3750404 -62.05371094 22.36157227 C-58.84525601 22.34605056 -55.6378609 22.30579748 -52.4296875 22.26171875 C-50.94648514 22.26458138 -50.94648514 22.26458138 -49.43331909 22.26750183 C-41.92888625 22.13545678 -37.69376305 20.54878929 -32.0234375 15.46875 C-31.31445312 14.7159375 -30.60546875 13.963125 -29.875 13.1875 C-26.89920923 10.11031943 -24.02750462 7.14606383 -20.5 4.6875 C-19.84 4.6875 -19.18 4.6875 -18.5 4.6875 C-18.5 4.0275 -18.5 3.3675 -18.5 2.6875 C-12.02579782 -1.07930854 -7.36916135 -2.76343551 0 0 Z " fill="#FA6615" transform="translate(128.5,224.3125)"/>
<path d="M0 0 C2.81901736 1.09416098 5.40449079 2.4537392 8 4 C8 4.66 8 5.32 8 6 C8.56203125 6.23074219 9.1240625 6.46148437 9.703125 6.69921875 C13.5236597 8.86288891 16.18912175 12.21453142 19.171875 15.39453125 C26.19506417 21.86478978 31.52332433 23.74504815 41.0625 23.70703125 C42.6103418 23.72971321 42.6103418 23.72971321 44.18945312 23.75285339 C47.45986049 23.79557111 50.72934199 23.80455333 54 23.8125 C56.22788892 23.83565657 58.45575603 23.86102431 60.68359375 23.88867188 C66.12240477 23.95136658 71.56085633 23.98642708 77 24 C77.04254356 25.99954746 77.04080783 28.00041636 77 30 C76 31 76 31 74.09353638 31.10438538 C73.25845551 31.09580002 72.42337463 31.08721466 71.56298828 31.07836914 C70.61755157 31.07249283 69.67211487 31.06661652 68.69802856 31.06056213 C67.14980911 31.04798622 67.14980911 31.04798622 65.5703125 31.03515625 C63.39062029 31.03887311 61.21093096 31.04480604 59.03125 31.05273438 C55.59007445 31.06324365 52.15095981 31.06279137 48.70996094 31.02416992 C32.07434192 30.3091106 32.07434192 30.3091106 18.01123047 37.89233398 C17.01567139 38.93562866 17.01567139 38.93562866 16 40 C11.12244783 44.19316073 8.48302378 44.59382561 2.14453125 44.40625 C-1.88713305 43.88538902 -5.1952431 42.62628331 -8.84375 40.875 C-11.22990462 39.74932213 -11.22990462 39.74932213 -15 40 C-15 38.02 -15 36.04 -15 34 C-14.34 34 -13.68 34 -13 34 C-12.5875 32.865625 -12.175 31.73125 -11.75 30.5625 C-10.29470744 26.66562657 -8.62893894 22.89407041 -6.90625 19.109375 C-5.88211523 16.82314984 -5.88211523 16.82314984 -4.9375 13.625 C-3.99436914 10.9842336 -3.14485965 9.75488517 -1 8 C-2.65 8 -4.3 8 -6 8 C-6 7.34 -6 6.68 -6 6 C-6.66 5.67 -7.32 5.34 -8 5 C-8 5.66 -8 6.32 -8 7 C-9.32 7 -10.64 7 -12 7 C-12.33 8.32 -12.66 9.64 -13 11 C-14.32 11.33 -15.64 11.66 -17 12 C-17 12.66 -17 13.32 -17 14 C-17.66 14 -18.32 14 -19 14 C-19.33 14.99 -19.66 15.98 -20 17 C-20.66 16.67 -21.32 16.34 -22 16 C-16.87828277 6.64650931 -11.90078497 -1.59644676 0 0 Z " fill="#E8501F" transform="translate(386,223)"/>
<path d="M0 0 C0.763125 0.309375 1.52625 0.61875 2.3125 0.9375 C4.18789677 1.67893593 6.08684652 2.36228217 8 3 C7.38125 3.721875 6.7625 4.44375 6.125 5.1875 C3.07423891 9.22527203 1.73673083 13.69720788 0.0625 18.4375 C-1.38958811 22.46201385 -2.9669729 26.23889987 -5 30 C-5.33 30 -5.66 30 -6 30 C-6.10054688 31.30066406 -6.20109375 32.60132813 -6.3046875 33.94140625 C-6.86630613 38.94411717 -8.25866029 43.28199964 -10.125 47.9375 C-10.43123291 48.71657715 -10.73746582 49.4956543 -11.05297852 50.29833984 C-13.57574184 56.47194706 -16.73811886 61.84428969 -21 67 C-21.33 66.01 -21.66 65.02 -22 64 C-22.95417455 61.50446656 -23.95326859 59.09346282 -25.1484375 56.703125 C-30.87525211 45.24949578 -32.8522541 32.51795285 -35.04931641 20.0012207 C-35.67440551 16.39277674 -35.67440551 16.39277674 -37 13 C-37.04022391 10.6670134 -37.04320247 8.33293334 -37 6 C-36.67 6 -36.34 6 -36 6 C-35.34 9.3 -34.68 12.6 -34 16 C-31.77110504 16.05428973 -29.54182529 16.09292338 -27.3125 16.125 C-26.07113281 16.14820313 -24.82976562 16.17140625 -23.55078125 16.1953125 C-20.18762143 16.01032021 -18.0014413 15.45767895 -15 14 C-15 13.34 -15 12.68 -15 12 C-14.01 11.67 -13.02 11.34 -12 11 C-11.67 10.34 -11.34 9.68 -11 9 C-10.34 9 -9.68 9 -9 9 C-9 8.34 -9 7.68 -9 7 C-7.68 6.67 -6.36 6.34 -5 6 C-4.67 4.68 -4.34 3.36 -4 2 C-2.68 2 -1.36 2 0 2 C0 1.34 0 0.68 0 0 Z " fill="#FC7A0C" transform="translate(378,228)"/>
<path d="M0 0 C2.10348035 3.15522052 2.81218752 5.52992975 3.76953125 9.1796875 C4.10146484 10.41976562 4.43339844 11.65984375 4.77539062 12.9375 C5.45798412 15.52268231 6.13614122 18.10900043 6.81445312 20.6953125 C10.31878985 35.83615201 10.31878985 35.83615201 18 49 C20.62625139 49.33425735 20.62625139 49.33425735 23 49 C26.62549151 42.06580749 29.05784829 35.85126421 30 28 C30.33 28 30.66 28 31 28 C31 33.94 31 39.88 31 46 C30.67 46 30.34 46 30 46 C29.92483154 47.05985107 29.84966309 48.11970215 29.7722168 49.21166992 C28.49720496 67.09591396 27.21757786 84.97630017 25.375 102.8125 C25.25213623 104.01350342 25.12927246 105.21450684 25.00268555 106.4519043 C24.13233077 114.60300768 24.13233077 114.60300768 23 118 C22.85596652 119.33363703 22.75409577 120.67218046 22.68359375 122.01171875 C22.64169922 122.76904297 22.59980469 123.52636719 22.55664062 124.30664062 C22.51732422 125.09232422 22.47800781 125.87800781 22.4375 126.6875 C22.39431641 127.48478516 22.35113281 128.28207031 22.30664062 129.10351562 C22.20072632 131.06881447 22.09987449 133.03438496 22 135 C21.67 135 21.34 135 21 135 C19.79011066 129.92278579 18.87345355 125.1732647 19.0625 119.9375 C19.14078073 116.55577267 18.84306815 114.08872107 17.625 110.9375 C15.75962818 105.98944799 15.25882877 100.95283483 14.73486328 95.73022461 C14.18437402 90.27001875 13.39071132 84.86876153 12.53735352 79.44775391 C12.00094095 76.00603732 11.49654161 72.5609572 11 69.11328125 C10.7525 67.43008789 10.7525 67.43008789 10.5 65.71289062 C10.16048096 63.40389589 9.82736676 61.09395211 9.5 58.78320312 C9.335 57.67525391 9.17 56.56730469 9 55.42578125 C8.7834375 53.93171753 8.7834375 53.93171753 8.5625 52.4074707 C8.18411072 49.83232344 8.18411072 49.83232344 6 48 C5.48631105 45.52138066 5.08216843 43.10906369 4.74609375 40.60546875 C4.58742577 39.49066887 4.58742577 39.49066887 4.42555237 38.35334778 C4.20233333 36.77266123 3.98320517 35.19139248 3.76782227 33.60961914 C3.44380945 31.23376461 3.10689227 28.86003999 2.76757812 26.48632812 C1.52591706 17.66765341 0.53682274 8.89352751 0 0 Z " fill="#F96913" transform="translate(199,194)"/>
<path d="M0 0 C0.66 0.33 1.32 0.66 2 1 C4.56005784 12.14422483 4.81716637 24.02859225 5.67724609 35.4074707 C6.33843519 44.07629371 7.18266381 52.59346304 8.59863281 61.17895508 C9.15361234 65.079678 9.22570857 68.88099229 9.125 72.8125 C9.11597656 73.51697266 9.10695313 74.22144531 9.09765625 74.94726562 C9.0747392 76.63166907 9.03891396 78.31589019 9 80 C9.66 80 10.32 80 11 80 C11.33 83.63 11.66 87.26 12 91 C11.505 90.01 11.505 90.01 11 89 C4.4 89 -2.2 89 -9 89 C-9.09161833 81.85377008 -8.94715843 74.75906349 -8.5625 67.625 C-8.52326416 66.86461426 -8.48402832 66.10422852 -8.44360352 65.32080078 C-8.26310453 62.17159575 -8.02257938 59.13252358 -7.4921875 56.01953125 C-6.72001664 51.28232428 -6.64628207 46.51261465 -6.48242188 41.72070312 C-6.26427005 36.85138975 -5.43443853 32.68994159 -4 28 C-3.76143024 26.21441602 -3.56741957 24.42176003 -3.4375 22.625 C-3.10277325 18.10277325 -3.10277325 18.10277325 -2 17 C-1.97937958 15.27083078 -2.0088501 13.54095974 -2.0625 11.8125 C-2.11353234 7.45774062 -1.75272291 4.05317173 0 0 Z " fill="#FA5F18" transform="translate(251,176)"/>
<path d="M0 0 C0.82638376 2.89234315 1 4.88742431 1 8 C0.34 8 -0.32 8 -1 8 C-1.268125 8.7425 -1.53625 9.485 -1.8125 10.25 C-2.95297649 12.89110345 -4.28677072 14.71569429 -6 17 C-7.77486578 20.92154138 -8.76707169 24.86444894 -9.6875 29.0625 C-10.09548828 30.87427734 -10.09548828 30.87427734 -10.51171875 32.72265625 C-10.97141134 35.80811288 -10.79747351 37.11590408 -10 40 C-10.37890625 42.40234375 -10.37890625 42.40234375 -11 45 C-11.47133428 47.79235853 -11.94118828 50.58484664 -12.40234375 53.37890625 C-13 56 -13 56 -13.97485352 57.8425293 C-15.14054991 60.29579414 -15.56621011 62.46139147 -16 65.140625 C-16.165 66.12933594 -16.33 67.11804688 -16.5 68.13671875 C-16.7475 69.67779297 -16.7475 69.67779297 -17 71.25 C-18.0880967 77.92309302 -19.2775676 84.4604745 -21 91 C-21.52875489 93.40186043 -22.03538058 95.80683372 -22.53515625 98.21484375 C-23 100 -23 100 -24 101 C-24.23653523 103.52596259 -24.42173692 106.03107207 -24.5625 108.5625 C-24.60568359 109.27341797 -24.64886719 109.98433594 -24.69335938 110.71679688 C-24.79971777 112.47761912 -24.90038846 114.2387832 -25 116 C-25.66 116 -26.32 116 -27 116 C-28.01170474 110.66881827 -29.01002207 105.33525778 -30 100 C-30.13341797 99.28440918 -30.26683594 98.56881836 -30.40429688 97.83154297 C-32.30489258 87.58392804 -33.79238683 77.35253837 -35 67 C-35.09047607 66.34725098 -35.18095215 65.69450195 -35.27416992 65.02197266 C-35.89591289 60.48593788 -36.1066265 56.08915621 -36.0625 51.5 C-36.05347656 50.2728125 -36.04445313 49.045625 -36.03515625 47.78125 C-36.02355469 46.8634375 -36.01195312 45.945625 -36 45 C-34.20931427 47.6860286 -33.33944209 49.6626589 -32.375 52.6875 C-32.11460937 53.49574219 -31.85421875 54.30398437 -31.5859375 55.13671875 C-31.39257812 55.75160156 -31.19921875 56.36648437 -31 57 C-28.69 57.33 -26.38 57.66 -24 58 C-20.116067 52.4459889 -17.87364126 47.26883387 -16.2109375 40.72265625 C-15.98097076 39.87070175 -15.75100403 39.01874725 -15.5140686 38.14097595 C-14.78848316 35.4513143 -14.07975106 32.7576901 -13.375 30.0625 C-12.43884551 26.48685728 -11.48624315 22.91620218 -10.5234375 19.34765625 C-10.31399506 18.52483658 -10.10455261 17.70201691 -9.88876343 16.85426331 C-9.35418584 14.87470479 -8.6882989 12.93149417 -8 11 C-7.01 10.67 -6.02 10.34 -5 10 C-4.67 8.845 -4.34 7.69 -4 6.5 C-3.67 5.345 -3.34 4.19 -3 3 C-2.01 2.67 -1.02 2.34 0 2 C0 1.34 0 0.68 0 0 Z " fill="#F96316" transform="translate(311,185)"/>
<path d="M0 0 C0 0.66 0 1.32 0 2 C-0.66 2 -1.32 2 -2 2 C-2 2.66 -2 3.32 -2 4 C-2.99 4.33 -3.98 4.66 -5 5 C-6.4587688 6.29078411 -6.4587688 6.29078411 -8 8 C-9.2375 9.1446875 -9.2375 9.1446875 -10.5 10.3125 C-13.1517572 12.86190421 -13.1517572 12.86190421 -14.375 16.1875 C-16 19 -16 19 -19.6875 20.375 C-20.780625 20.58125 -21.87375 20.7875 -23 21 C-23 21.66 -23 22.32 -23 23 C-23.66 23.66 -24.32 24.32 -25 25 C-24.43410156 25.26554687 -23.86820313 25.53109375 -23.28515625 25.8046875 C-22.55167969 26.15789062 -21.81820312 26.51109375 -21.0625 26.875 C-20.33160156 27.22304687 -19.60070312 27.57109375 -18.84765625 27.9296875 C-17 29 -17 29 -16 31 C-15.34 31 -14.68 31 -14 31 C-14 31.99 -14 32.98 -14 34 C-13.01 34 -12.02 34 -11 34 C-11 34.66 -11 35.32 -11 36 C-10.01 36 -9.02 36 -8 36 C-7.67 36.66 -7.34 37.32 -7 38 C-4.41394668 38.4683265 -4.41394668 38.4683265 -1.4375 38.625 C-0.42558594 38.69976562 0.58632812 38.77453125 1.62890625 38.8515625 C2.41136719 38.90054688 3.19382812 38.94953125 4 39 C4 38.34 4 37.68 4 37 C5.32 37 6.64 37 8 37 C8 36.01 8 35.02 8 34 C10.97 34 13.94 34 17 34 C17 34.99 17 35.98 17 37 C16.39671875 37.12117188 15.7934375 37.24234375 15.171875 37.3671875 C14.37265625 37.53476562 13.5734375 37.70234375 12.75 37.875 C11.96109375 38.03742188 11.1721875 38.19984375 10.359375 38.3671875 C8.00547109 38.90530671 8.00547109 38.90530671 6.05078125 40.02734375 C1.55890066 42.15777854 -3.21200859 41.96913561 -8 41 C-11.18513566 39.01234501 -13.79020403 36.825465 -16.52734375 34.26171875 C-22.64170587 28.66896098 -27.34912125 28.54800483 -35.390625 28.5234375 C-37.04115875 28.50006821 -37.04115875 28.50006821 -38.72503662 28.47622681 C-42.23335087 28.42874984 -45.74146602 28.40094643 -49.25 28.375 C-52.77267718 28.3385552 -56.29524034 28.29801013 -59.81781006 28.25234985 C-62.00902642 28.22504065 -64.20032682 28.2037256 -66.3916626 28.18881226 C-67.37648621 28.17855011 -68.36130981 28.16828796 -69.37597656 28.15771484 C-70.24691956 28.15121918 -71.11786255 28.14472351 -72.01519775 28.13803101 C-74 28 -74 28 -75 27 C-75.125 24.5 -75.125 24.5 -75 22 C-73.42856606 20.42856606 -71.8652833 20.86750947 -69.68310547 20.8581543 C-68.7647995 20.85111984 -67.84649353 20.84408539 -66.90036011 20.83683777 C-65.89941315 20.83267349 -64.89846619 20.82850922 -63.8671875 20.82421875 C-61.7604068 20.80100875 -59.65363595 20.77689095 -57.546875 20.75195312 C-54.21575458 20.71690676 -50.88499282 20.6875404 -47.55371094 20.67407227 C-44.34525601 20.65855056 -41.1378609 20.61829748 -37.9296875 20.57421875 C-36.44648514 20.57708138 -36.44648514 20.57708138 -34.93331909 20.58000183 C-27.42888625 20.44795678 -23.19376305 18.86128929 -17.5234375 13.78125 C-16.45996094 12.65203125 -16.45996094 12.65203125 -15.375 11.5 C-12.39920923 8.42281943 -9.52750462 5.45856383 -6 3 C-5.34 3 -4.68 3 -4 3 C-4 2.34 -4 1.68 -4 1 C-2 0 -2 0 0 0 Z " fill="#E96125" transform="translate(114,226)"/>
<path d="M0 0 C0.99 0 1.98 0 3 0 C3.22226864 1.76913824 3.42733873 3.54044371 3.625 5.3125 C3.79902344 6.79169922 3.79902344 6.79169922 3.9765625 8.30078125 C4 11 4 11 2 14 C1.40396725 16.10728433 1.40396725 16.10728433 1 18.375 C0.46755881 20.99494872 -0.06710832 23.15658609 -1.125 25.625 C-2.21684625 28.12614172 -2.21684625 28.12614172 -1.875 31.5 C-2 35 -2 35 -3.4375 37.9375 C-6.71421478 40.5748558 -8.78456157 40.52398568 -12.87890625 40.46875 C-15.45459823 39.8995363 -16.40855845 39.07446695 -18 37 C-18 36.34 -18 35.68 -18 35 C-19.32 35 -20.64 35 -22 35 C-22 34.01 -22 33.02 -22 32 C-20.35 32 -18.7 32 -17 32 C-17.020625 31.05125 -17.04125 30.1025 -17.0625 29.125 C-17 26 -17 26 -16 24 C-15.195625 23.5875 -14.39125 23.175 -13.5625 22.75 C-10.19181402 20.44806811 -9.87913371 18.95610171 -9 15 C-8.84220691 13.4595115 -8.69697866 11.9176986 -8.5625 10.375 C-8.21367653 6.80858069 -7.85501837 4.43205268 -5 2 C-3.68 2 -2.36 2 -1 2 C-0.67 1.34 -0.34 0.68 0 0 Z " fill="#FCA213" transform="translate(166,256)"/>
<path d="M0 0 C0.33 0 0.66 0 1 0 C1.66 3.3 2.32 6.6 3 10 C5.22889496 10.05428973 7.45817471 10.09292338 9.6875 10.125 C10.92886719 10.14820313 12.17023438 10.17140625 13.44921875 10.1953125 C16.83709655 10.00896059 19.02229376 9.58000739 22 8 C22.33 7.34 22.66 6.68 23 6 C22.39809753 10.86788625 20.90633778 15.07990856 19 19.5625 C17.26851289 23.65844711 15.67935882 27.57567572 15 32 C14.34 32 13.68 32 13 32 C12.566875 33.8871875 12.566875 33.8871875 12.125 35.8125 C11.42696461 38.8539399 10.79553415 40.30669878 9 43 C6.05996489 36.03675894 4.70630849 29.04581212 3.375 21.625 C2.94786539 19.28338705 2.51830432 16.94221499 2.0859375 14.6015625 C1.9007959 13.57369629 1.7156543 12.54583008 1.52490234 11.48681641 C1.11247357 9.0142371 1.11247357 9.0142371 0 7 C-0.04022391 4.6670134 -0.04320247 2.33293334 0 0 Z " fill="#F7541B" transform="translate(341,234)"/>
<path d="M0 0 C3.44672345 3.44672345 5.35434738 6.07366254 7.65625 10.1953125 C9.28952821 12.38884312 10.42314325 13.09672459 13 14 C15.75197426 14.27792101 15.75197426 14.27792101 18.625 14.1875 C19.58664063 14.18105469 20.54828125 14.17460937 21.5390625 14.16796875 C24.00410451 14.1584765 24.00410451 14.1584765 26 13 C26.66 11.68 27.32 10.36 28 9 C27.67 12.63 27.34 16.26 27 20 C26.34 20 25.68 20 25 20 C25 20.99 25 21.98 25 23 C24.34 23 23.68 23 23 23 C22.87625 24.299375 22.7525 25.59875 22.625 26.9375 C21.17747326 39.82252674 21.17747326 39.82252674 18 43 C17.80664062 42.21753906 17.61328125 41.43507813 17.4140625 40.62890625 C17.15367187 39.61699219 16.89328125 38.60507812 16.625 37.5625 C16.36976563 36.55316406 16.11453125 35.54382813 15.8515625 34.50390625 C15.27426046 31.84429676 15.27426046 31.84429676 13 31 C12.03424634 28.3573468 11.17543613 25.75466455 10.375 23.0625 C10.14554688 22.32064453 9.91609375 21.57878906 9.6796875 20.81445312 C8 15.30047898 8 15.30047898 8 13 C6.35 12.67 4.7 12.34 3 12 C2.01 8.04 1.02 4.08 0 0 Z " fill="#F7511E" transform="translate(133,230)"/>
<path d="M0 0 C7.42792635 4.42138473 9.38555536 12.48259121 11.42114258 20.37524414 C12.96623934 26.64294624 14.37696181 32.9426818 15.75 39.25 C15.97292725 40.24322266 16.19585449 41.23644531 16.42553711 42.25976562 C17.78936327 48.72038969 18.96682153 55.39947145 18 62 C15.5 64.1875 15.5 64.1875 13 65 C13 63.02 13 61.04 13 59 C13.99 58.67 14.98 58.34 16 58 C15.505 54.535 15.505 54.535 15 51 C14.34 51 13.68 51 13 51 C13.03255208 48.98177083 13.06510417 46.96354167 13.09765625 44.9453125 C13.12649242 42.91814596 13.12649242 42.91814596 12 41 C11.93003986 39.29297265 11.91559846 37.58331997 11.9375 35.875 C11.94652344 34.96492188 11.95554687 34.05484375 11.96484375 33.1171875 C11.97644531 32.41851562 11.98804688 31.71984375 12 31 C10.02 30.67 8.04 30.34 6 30 C6.09539062 29.39671875 6.19078125 28.7934375 6.2890625 28.171875 C6.39992188 27.37265625 6.51078125 26.5734375 6.625 25.75 C6.74101562 24.96109375 6.85703125 24.1721875 6.9765625 23.359375 C7.00359762 20.63784005 6.2963923 19.35359782 5 17 C4.62599214 14.67284 4.29235267 12.33882138 4 10 C3.72359986 7.7124024 3.72359986 7.7124024 3 6 C2.01 5.67 1.02 5.34 0 5 C0 4.01 0 3.02 0 2 C-1.43793392 2.31049726 -2.8753318 2.6234776 -4.3125 2.9375 C-5.11300781 3.11152344 -5.91351563 3.28554687 -6.73828125 3.46484375 C-9.145401 3.99886159 -9.145401 3.99886159 -12 5 C-12 6.32 -12 7.64 -12 9 C-13 10 -14 11 -15 12 C-15.69100553 13.99172182 -16.35902703 15.99161804 -17 18 C-17.66 18.66 -18.32 19.32 -19 20 C-18.73383708 12.81360123 -16.42949888 7.67884472 -12 2 C-7.7791232 -1.07772267 -4.9812657 -1.58976565 0 0 Z " fill="#F49118" transform="translate(323,178)"/>
<path d="M0 0 C1.22244667 0.00333092 1.22244667 0.00333092 2.46958923 0.00672913 C3.39046829 0.00680466 4.31134735 0.00688019 5.26013184 0.00695801 C6.2611644 0.01211929 7.26219696 0.01728058 8.29356384 0.02259827 C9.31316696 0.02401321 10.33277008 0.02542816 11.38327026 0.02688599 C14.65417867 0.03250355 17.92501972 0.04505902 21.19590759 0.05775452 C23.40749515 0.06276725 25.61908377 0.06733055 27.83067322 0.07142639 C33.26494116 0.08247868 38.69916957 0.09923389 44.13340759 0.12025452 C44.13340759 0.45025452 44.13340759 0.78025452 44.13340759 1.12025452 C29.61340759 1.45025452 15.09340759 1.78025452 0.13340759 2.12025452 C-0.19659241 3.11025452 -0.52659241 4.10025452 -0.86659241 5.12025452 C-0.22401489 5.12834137 0.41856262 5.13642822 1.08061218 5.14476013 C7.76410329 5.23076772 14.44729651 5.33026992 21.13047791 5.43763733 C23.62521871 5.47593806 26.12001495 5.51078897 28.61485291 5.54212952 C32.19936444 5.58775576 35.78349399 5.64575511 39.36778259 5.70619202 C41.04296967 5.72351883 41.04296967 5.72351883 42.7519989 5.74119568 C43.79277588 5.76106537 44.83355286 5.78093506 45.90586853 5.80140686 C47.27820648 5.82139236 47.27820648 5.82139236 48.67826843 5.84178162 C51.28841114 6.13783571 52.92514781 6.71438063 55.13340759 8.12025452 C55.62840759 9.11025452 55.62840759 9.11025452 56.13340759 10.12025452 C56.79340759 10.12025452 57.45340759 10.12025452 58.13340759 10.12025452 C58.13340759 11.11025452 58.13340759 12.10025452 58.13340759 13.12025452 C59.12340759 13.12025452 60.11340759 13.12025452 61.13340759 13.12025452 C61.13340759 13.78025452 61.13340759 14.44025452 61.13340759 15.12025452 C62.12340759 15.12025452 63.11340759 15.12025452 64.13340759 15.12025452 C64.62840759 16.11025452 64.62840759 16.11025452 65.13340759 17.12025452 C67.71946091 17.58858101 67.71946091 17.58858101 70.69590759 17.74525452 C72.21377869 17.85740295 72.21377869 17.85740295 73.76231384 17.97181702 C74.54477478 18.02080139 75.32723572 18.06978577 76.13340759 18.12025452 C76.13340759 17.46025452 76.13340759 16.80025452 76.13340759 16.12025452 C77.45340759 16.12025452 78.77340759 16.12025452 80.13340759 16.12025452 C80.13340759 15.13025452 80.13340759 14.14025452 80.13340759 13.12025452 C83.10340759 13.12025452 86.07340759 13.12025452 89.13340759 13.12025452 C89.13340759 14.11025452 89.13340759 15.10025452 89.13340759 16.12025452 C88.53012634 16.24142639 87.92684509 16.36259827 87.30528259 16.48744202 C86.50606384 16.65502014 85.70684509 16.82259827 84.88340759 16.99525452 C84.09450134 17.15767639 83.30559509 17.32009827 82.49278259 17.48744202 C80.13887868 18.02556123 80.13887868 18.02556123 78.18418884 19.14759827 C73.69230826 21.27803306 68.921399 21.08939013 64.13340759 20.12025452 C60.94827193 18.13259953 58.34320356 15.94571952 55.60606384 13.38197327 C49.49170172 7.78921549 44.78428635 7.66825935 36.74278259 7.64369202 C35.09224884 7.62032272 35.09224884 7.62032272 33.40837097 7.59648132 C29.90005673 7.54900436 26.39194157 7.52120095 22.88340759 7.49525452 C19.36073041 7.45880972 15.83816725 7.41826465 12.31559753 7.37260437 C10.12438118 7.34529517 7.93308078 7.32398012 5.741745 7.30906677 C4.75692139 7.29880463 3.77209778 7.28854248 2.75743103 7.27796936 C1.88648804 7.27147369 1.01554504 7.26497803 0.11820984 7.25828552 C-1.86659241 7.12025452 -1.86659241 7.12025452 -2.86659241 6.12025452 C-2.99159241 3.62025452 -2.99159241 3.62025452 -2.86659241 1.12025452 C-1.86659241 0.12025452 -1.86659241 0.12025452 0 0 Z " fill="#CC472B" transform="translate(41.86659240722656,246.87974548339844)"/>
<path d="M0 0 C2.47861553 3.7179233 2.85453989 7.24041835 3.5 11.5625 C3.75810057 13.19156723 4.01720855 14.82047518 4.27734375 16.44921875 C4.40093262 17.23345215 4.52452148 18.01768555 4.65185547 18.82568359 C5.08275423 21.51683675 5.5527237 24.19767094 6.0625 26.875 C6.19785156 27.59429687 6.33320313 28.31359375 6.47265625 29.0546875 C6.94796886 31.08746478 6.94796886 31.08746478 8.11328125 33.1171875 C8.40589844 33.73851562 8.69851563 34.35984375 9 35 C8.125 37.25 8.125 37.25 7 39 C6.7525 38.195625 6.505 37.39125 6.25 36.5625 C5.31160399 33.90053684 5.31160399 33.90053684 3.31640625 33.3515625 C-4.17688121 32.21430133 -11.87511375 32.34887953 -19 35 C-18.37679879 28.56025419 -17.35991738 22.32427599 -16 16 C-14 18 -14 18 -13.8046875 19.9453125 C-13.86979167 21.96354167 -13.93489583 23.98177083 -14 26 C-12.35 25.34 -10.7 24.68 -9 24 C-8.34 24.66 -7.68 25.32 -7 26 C-7.66 26 -8.32 26 -9 26 C-9 26.99 -9 27.98 -9 29 C-8.34 29 -7.68 29 -7 29 C-7 28.34 -7 27.68 -7 27 C-1.25 28.875 -1.25 28.875 1 30 C3.10173574 23.69479279 2.26713326 17.30107862 0.4453125 11.02734375 C-0.3547865 7.38478778 -0.15449569 3.70789661 0 0 Z " fill="#F54F1A" transform="translate(325,232)"/>
<path d="M0 0 C3.97110161 1.8245602 3.97110161 1.8245602 5.73046875 3.24609375 C6.453125 5.38671875 6.453125 5.38671875 6.73046875 7.24609375 C5.74046875 7.30796875 5.74046875 7.30796875 4.73046875 7.37109375 C0.3413292 8.65125945 -2.75479654 11.39418742 -6.26953125 14.24609375 C-6.59953125 13.25609375 -6.92953125 12.26609375 -7.26953125 11.24609375 C-5.94953125 9.92609375 -4.62953125 8.60609375 -3.26953125 7.24609375 C-4.91953125 7.24609375 -6.56953125 7.24609375 -8.26953125 7.24609375 C-8.26953125 6.58609375 -8.26953125 5.92609375 -8.26953125 5.24609375 C-8.92953125 4.91609375 -9.58953125 4.58609375 -10.26953125 4.24609375 C-10.26953125 4.90609375 -10.26953125 5.56609375 -10.26953125 6.24609375 C-11.58953125 6.24609375 -12.90953125 6.24609375 -14.26953125 6.24609375 C-14.59953125 7.56609375 -14.92953125 8.88609375 -15.26953125 10.24609375 C-16.58953125 10.57609375 -17.90953125 10.90609375 -19.26953125 11.24609375 C-19.26953125 11.90609375 -19.26953125 12.56609375 -19.26953125 13.24609375 C-19.92953125 13.24609375 -20.58953125 13.24609375 -21.26953125 13.24609375 C-21.59953125 14.23609375 -21.92953125 15.22609375 -22.26953125 16.24609375 C-22.92953125 15.91609375 -23.58953125 15.58609375 -24.26953125 15.24609375 C-18.90646993 5.45185056 -12.61244215 -4.18967528 0 0 Z " fill="#F96510" transform="translate(388.26953125,223.75390625)"/>
<path d="M0 0 C2.9987908 2.9987908 2.92907819 6.64279975 3.4921875 10.69140625 C3.61995575 11.57792374 3.747724 12.46444122 3.87936401 13.37782288 C5.33736293 23.8614559 6.23693638 34.39329546 7.125 44.9375 C7.37761453 47.89038519 7.63206083 50.8430892 7.88961792 53.79554749 C8.04748506 55.60943481 8.20238412 57.42358381 8.35379028 59.23802185 C8.6980357 63.23233845 9.16975971 67.07301131 10 71 C10.13728142 72.545681 10.2425963 74.09452221 10.31640625 75.64453125 C10.37924805 76.90620117 10.37924805 76.90620117 10.44335938 78.19335938 C10.48267578 79.05767578 10.52199219 79.92199219 10.5625 80.8125 C10.60568359 81.69615234 10.64886719 82.57980469 10.69335938 83.49023438 C10.79891536 85.65999623 10.89991071 87.8299791 11 90 C10.34 90 9.68 90 9 90 C8.95512451 89.44465576 8.91024902 88.88931152 8.86401367 88.31713867 C7.80493666 75.35630453 6.52067647 62.43873091 5.03808594 49.51953125 C4.23836479 42.45089628 3.64550542 35.42293074 3.25 28.3203125 C2.81209874 22.50443641 1.91396964 16.75889607 1 11 C-0.75163456 14.77222089 -1.22490027 17.666639 -1.125 21.8125 C-1.10695312 22.78832031 -1.08890625 23.76414063 -1.0703125 24.76953125 C-1.04710937 25.50558594 -1.02390625 26.24164063 -1 27 C-1.66 27.33 -2.32 27.66 -3 28 C-3.05447822 25.47886908 -3.09389852 22.9589415 -3.125 20.4375 C-3.14175781 19.73302734 -3.15851563 19.02855469 -3.17578125 18.30273438 C-3.21983486 13.5229173 -2.49902981 9.58793972 -1 5 C-0.64628502 3.33753959 -0.30404678 1.67225729 0 0 Z " fill="#F47E0A" transform="translate(251,166)"/>
<path d="M0 0 C0.66 0 1.32 0 2 0 C1.67 3.3 1.34 6.6 1 10 C1.66 10.33 2.32 10.66 3 11 C2.52820313 11.39960938 2.05640625 11.79921875 1.5703125 12.2109375 C-0.32662777 14.37212816 -0.63346041 15.80981873 -1.125 18.625 C-1.2796875 19.5015625 -1.434375 20.378125 -1.59375 21.28125 C-2.17647305 25.18101193 -2.62017782 29.07517086 -3 33 C-1.2236068 34.0745356 -1.2236068 34.0745356 0 34 C2 34 4 34 6 34 C6 33.01 6 32.02 6 31 C6.66 31.33 7.32 31.66 8 32 C9.66392045 32.67349161 11.33032028 33.3409159 13 34 C13 33.01 13 32.02 13 31 C13.66 31 14.32 31 15 31 C15 32.32 15 33.64 15 35 C15.99 35 16.98 35 18 35 C17.67 36.32 17.34 37.64 17 39 C16.45988281 38.83757812 15.91976562 38.67515625 15.36328125 38.5078125 C8.61521698 37.05781522 0.728819 37.50470689 -6 39 C-6.33 39.66 -6.66 40.32 -7 41 C-6.39371194 32.15485677 -4.6661747 23.5512532 -2.9375 14.875 C-2.65257132 13.42716661 -2.36806298 11.97925043 -2.08398438 10.53125 C-1.39416131 7.01986662 -0.69867425 3.50963432 0 0 Z " fill="#CF4922" transform="translate(178,227)"/>
<path d="M0 0 C4.83024654 3.59460208 6.93108613 8.17551013 8 14 C7.67 14.99 7.34 15.98 7 17 C6.34 16.67 5.68 16.34 5 16 C5.33 14.35 5.66 12.7 6 11 C5.34 11 4.68 11 4 11 C3.938125 10.05125 3.87625 9.1025 3.8125 8.125 C3.544375 7.09375 3.27625 6.0625 3 5 C0.66666667 3.58333333 0.66666667 3.58333333 -2 3 C-2.99 2.67 -3.98 2.34 -5 2 C-5.33 4.64 -5.66 7.28 -6 10 C-7.32 9.67 -8.64 9.34 -10 9 C-10 8.34 -10 7.68 -10 7 C-10.66 7 -11.32 7 -12 7 C-12.04898438 7.77085937 -12.09796875 8.54171875 -12.1484375 9.3359375 C-12.22320312 10.33882812 -12.29796875 11.34171875 -12.375 12.375 C-12.44460937 13.37273437 -12.51421875 14.37046875 -12.5859375 15.3984375 C-13 18 -13 18 -15 20 C-17.35105282 24.70210565 -18.06409364 29.87242792 -19 35 C-19.33 35 -19.66 35 -20 35 C-19.54179229 23.98010449 -17.94847945 9.3874943 -10 1 C-6.31396089 -1.2481189 -4.17135846 -1.27694647 0 0 Z " fill="#B47428" transform="translate(256,132)"/>
<path d="M0 0 C0.33 0 0.66 0 1 0 C3.91520787 18.81411464 6.06221181 37.58254171 7.70068359 56.54345703 C8.11809238 61.36374548 8.55790001 66.18192297 9 71 C8.01 71.495 8.01 71.495 7 72 C5.46170776 67.14612746 4.68973721 62.8328287 4.4375 57.7109375 C4.40068115 57.04462311 4.3638623 56.37830872 4.32592773 55.69180298 C4.17034243 52.87421417 4.03327863 50.0558124 3.89550781 47.23730469 C3.79149218 45.16558055 3.67727619 43.09458898 3.5625 41.0234375 C3.50191406 39.79544434 3.44132812 38.56745117 3.37890625 37.30224609 C3.01693968 34.14763283 2.29758741 31.87230489 1 29 C-0.41946051 23.12575461 -0.11056011 17.12881694 -0.0625 11.125 C-0.05798828 10.05507812 -0.05347656 8.98515625 -0.04882812 7.8828125 C-0.03709749 5.25515014 -0.02068228 2.62760462 0 0 Z " fill="#C29327" transform="translate(266,159)"/>
<path d="M0 0 C0.66 0 1.32 0 2 0 C3.48235665 4.15310049 4.43221565 8.16091676 5.1875 12.5 C6.58987618 19.46759535 9.21965643 24.77849483 12.76953125 30.84375 C14 34 14 34 13.19921875 37.40625 C12.80347656 38.2621875 12.40773438 39.118125 12 40 C4.51533742 40.36809816 4.51533742 40.36809816 2.25 38.75 C1.8375 38.1725 1.425 37.595 1 37 C-0.0828125 36.0409375 -0.0828125 36.0409375 -1.1875 35.0625 C-3 33 -3 33 -3 29 C0 30 0 30 2 33 C2.99 33.33 3.98 33.66 5 34 C5 35.32 5 36.64 5 38 C6.32 38 7.64 38 9 38 C9.16682272 33.07872966 9.24828052 29.49656104 7 25 C6.34 25 5.68 25 5 25 C4.67 22.03 4.34 19.06 4 16 C3.34 16 2.68 16 2 16 C1.34 10.72 0.68 5.44 0 0 Z " fill="#F6A21C" transform="translate(343,256)"/>
<path d="M0 0 C0.96503711 3.07855533 0.98468736 5.18870515 0.328125 8.3359375 C0.15796875 9.15320313 -0.0121875 9.97046875 -0.1875 10.8125 C-0.373125 11.658125 -0.55875 12.50375 -0.75 13.375 C-0.92015625 14.21289062 -1.0903125 15.05078125 -1.265625 15.9140625 C-2.28431051 20.67791535 -3.57389546 24.71945922 -6 29 C-6.66 29 -7.32 29 -8 29 C-8.1546875 29.9590625 -8.1546875 29.9590625 -8.3125 30.9375 C-8.539375 31.618125 -8.76625 32.29875 -9 33 C-11.75078884 33.91692961 -13.35948913 34.10886083 -16.1875 34.0625 C-17.445625 34.041875 -18.70375 34.02125 -20 34 C-20.50690584 31.93918639 -21.00524619 29.87626474 -21.5 27.8125 C-21.7784375 26.66394531 -22.056875 25.51539063 -22.34375 24.33203125 C-22.91495385 21.43181171 -23.13283779 18.93903615 -23 16 C-21.20931427 18.6860286 -20.33944209 20.6626589 -19.375 23.6875 C-19.11460937 24.49574219 -18.85421875 25.30398437 -18.5859375 26.13671875 C-18.39257812 26.75160156 -18.19921875 27.36648437 -18 28 C-15.69 28.33 -13.38 28.66 -11 29 C-6.69721655 22.99781594 -4.54517464 17.10719847 -2.6875 10 C-2.42388672 9.03449219 -2.16027344 8.06898438 -1.88867188 7.07421875 C-1.24740771 4.71903035 -0.61818457 2.3613306 0 0 Z " fill="#C75225" transform="translate(298,214)"/>
<path d="M0 0 C5.13346531 7.70019796 5.54013402 18.14725606 6.6875 27.125 C6.81890381 28.13780029 6.95030762 29.15060059 7.08569336 30.1940918 C7.84893729 36.49533936 8.16542045 42.65450669 8 49 C7.01 49 6.02 49 5 49 C4.44240101 45.58470619 3.99337504 42.35200621 4.05859375 38.88671875 C3.98674873 34.12099916 3.30880415 29.57498057 2.5625 24.875 C2.36043945 23.55435547 2.36043945 23.55435547 2.15429688 22.20703125 C1.63646725 18.85755766 1.1130234 15.53016896 0.40625 12.21484375 C-0.06141255 9.66518351 -0.09703234 7.27742524 -0.0625 4.6875 C-0.05347656 3.80449219 -0.04445312 2.92148438 -0.03515625 2.01171875 C-0.02355469 1.34785156 -0.01195312 0.68398437 0 0 Z " fill="#FB7F14" transform="translate(188,213)"/>
<path d="M0 0 C0.99 0.33 1.98 0.66 3 1 C2.67 3.31 2.34 5.62 2 8 C1.01 8 0.02 8 -1 8 C-2.78580642 9.20236936 -2.78580642 9.20236936 -4.5 10.8125 C-5.0878125 11.33457031 -5.675625 11.85664063 -6.28125 12.39453125 C-7.89001488 13.8972639 -9.45528207 15.43173454 -11 17 C-11.99 16.67 -12.98 16.34 -14 16 C-13.814375 16.94875 -13.62875 17.8975 -13.4375 18.875 C-13 22 -13 22 -14 24 C-15.98 23.34 -17.96 22.68 -20 22 C-20 21.01 -20 20.02 -20 19 C-19.34 19 -18.68 19 -18 19 C-18 18.34 -18 17.68 -18 17 C-16.88625 16.608125 -15.7725 16.21625 -14.625 15.8125 C-11.53488855 14.51166517 -11.53488855 14.51166517 -9.8125 11.625 C-9.544375 10.75875 -9.27625 9.8925 -9 9 C-6.53926539 5.39092257 -5.23779553 3.87678528 -1 3 C-0.67 2.01 -0.34 1.02 0 0 Z " fill="#F7581C" transform="translate(109,230)"/>
<path d="M0 0 C1.22244667 0.00333092 1.22244667 0.00333092 2.46958923 0.00672913 C3.39046829 0.00680466 4.31134735 0.00688019 5.26013184 0.00695801 C6.2611644 0.01211929 7.26219696 0.01728058 8.29356384 0.02259827 C9.31316696 0.02401321 10.33277008 0.02542816 11.38327026 0.02688599 C14.65417867 0.03250355 17.92501972 0.04505902 21.19590759 0.05775452 C23.40749515 0.06276725 25.61908377 0.06733055 27.83067322 0.07142639 C33.26494116 0.08247868 38.69916957 0.09923389 44.13340759 0.12025452 C44.13340759 0.45025452 44.13340759 0.78025452 44.13340759 1.12025452 C29.61340759 1.45025452 15.09340759 1.78025452 0.13340759 2.12025452 C-0.19659241 3.11025452 -0.52659241 4.10025452 -0.86659241 5.12025452 C14.97340759 5.45025452 30.81340759 5.78025452 47.13340759 6.12025452 C47.13340759 6.45025452 47.13340759 6.78025452 47.13340759 7.12025452 C40.17337312 7.1455229 33.21335039 7.16308674 26.25328064 7.17518616 C23.88348448 7.18022793 21.51369144 7.18706117 19.14390564 7.19569397 C15.74586721 7.20776642 12.34786974 7.21348423 8.94981384 7.21791077 C7.88315994 7.22307205 6.81650604 7.22823334 5.7175293 7.23355103 C4.73658798 7.23362656 3.75564667 7.23370209 2.74497986 7.23377991 C1.87672073 7.23600052 1.00846161 7.23822113 0.1138916 7.24050903 C-1.86659241 7.12025452 -1.86659241 7.12025452 -2.86659241 6.12025452 C-2.99159241 3.62025452 -2.99159241 3.62025452 -2.86659241 1.12025452 C-1.86659241 0.12025452 -1.86659241 0.12025452 0 0 Z " fill="#6B250C" transform="translate(41.86659240722656,246.87974548339844)"/>
<path d="M0 0 C0.33 0 0.66 0 1 0 C1.04954105 5.17780166 1.08578636 10.35546446 1.10986328 15.53344727 C1.11990351 17.29388839 1.13353844 19.05431291 1.15087891 20.81469727 C1.17521436 23.34916285 1.18650296 25.88340739 1.1953125 28.41796875 C1.20563507 29.20149216 1.21595764 29.98501556 1.22659302 30.7922821 C1.22744694 34.97755404 0.89203832 38.23883731 -1 42 C-1.33 42 -1.66 42 -2 42 C-2.04898438 42.63808594 -2.09796875 43.27617187 -2.1484375 43.93359375 C-2.22320312 44.75988281 -2.29796875 45.58617187 -2.375 46.4375 C-2.44460937 47.26121094 -2.51421875 48.08492187 -2.5859375 48.93359375 C-2.79089844 49.95646484 -2.79089844 49.95646484 -3 51 C-3.99 51.495 -3.99 51.495 -5 52 C-4.43142141 40.07883391 -3.35374066 28.28592606 -1.9375 16.4375 C-1.74890382 14.82882817 -1.56075102 13.22010429 -1.37304688 11.61132812 C-0.92044143 7.74027011 -0.46195457 3.86995298 0 0 Z " fill="#C58729" transform="translate(235,167)"/>
<path d="M0 0 C1.36365959 3.68188089 0.44698622 5.47297109 -1 9 C-0.67 9.99 -0.34 10.98 0 12 C-0.99 12.33 -1.98 12.66 -3 13 C-3 13.99 -3 14.98 -3 16 C-3.66 16 -4.32 16 -5 16 C-5 15.34 -5 14.68 -5 14 C-5.66 14 -6.32 14 -7 14 C-7.33 18.95 -7.66 23.9 -8 29 C-8.66 29 -9.32 29 -10 29 C-10.66 29.66 -11.32 30.32 -12 31 C-11.33886777 20.20150685 -7.77129011 7.77129011 0 0 Z " fill="#F58E1A" transform="translate(179,179)"/>
<path d="M0 0 C0.66 0 1.32 0 2 0 C2.35242778 9.39175815 1.25219874 18.52342238 0.0625 27.8125 C-0.12232957 29.30135981 -0.30657791 30.7902919 -0.49023438 32.27929688 C-1.22784841 38.20479764 -1.98092087 44.11494547 -3 50 C-3.33 50 -3.66 50 -4 50 C-4.02693575 47.87506859 -4.04636628 45.75004088 -4.0625 43.625 C-4.07410156 42.44164062 -4.08570313 41.25828125 -4.09765625 40.0390625 C-4 37 -4 37 -3 35 C-2.84621148 33.04225931 -2.75028537 31.07982648 -2.68359375 29.1171875 C-2.62075195 27.36728516 -2.62075195 27.36728516 -2.55664062 25.58203125 C-2.51732422 24.35871094 -2.47800781 23.13539063 -2.4375 21.875 C-2.39431641 20.64394531 -2.35113281 19.41289062 -2.30664062 18.14453125 C-2.20031296 15.09647147 -2.09828219 12.0483281 -2 9 C-1.34 9 -0.68 9 0 9 C0 6.03 0 3.06 0 0 Z " fill="#D49D2C" transform="translate(237,295)"/>
<path d="M0 0 C0.99 0.33 1.98 0.66 3 1 C3.66 4.63 4.32 8.26 5 12 C5.66 12 6.32 12 7 12 C7.10957031 12.63808594 7.21914062 13.27617187 7.33203125 13.93359375 C7.49058594 14.75988281 7.64914063 15.58617187 7.8125 16.4375 C8.03873047 17.67306641 8.03873047 17.67306641 8.26953125 18.93359375 C8.51058594 19.61550781 8.75164062 20.29742187 9 21 C9.99 21.33 10.98 21.66 12 22 C12 23.98 12 25.96 12 28 C13.32 28 14.64 28 16 28 C16.4125 28.639375 16.825 29.27875 17.25 29.9375 C19.33929804 32.39988698 20.07984069 32.38407175 23.1875 32.75 C24.445625 32.8325 25.70375 32.915 27 33 C27 33.33 27 33.66 27 34 C22.02439321 34.44249468 18.22472318 34.65946633 13.75 32.25 C6.9875791 25.44948095 0 9.73206761 0 0 Z " fill="#AA7027" transform="translate(132,263)"/>
<path d="M0 0 C3 2 3 2 3.66015625 4.2421875 C3.79292969 5.11101562 3.92570312 5.97984375 4.0625 6.875 C4.60425756 10.3319292 5.37891946 12.90981522 7 16 C7.309375 17.19625 7.61875 18.3925 7.9375 19.625 C8.68977613 23.24607658 8.68977613 23.24607658 12 25 C12 25.99 12 26.98 12 28 C14.97 28.33 17.94 28.66 21 29 C21 29.33 21 29.66 21 30 C13.13142857 30.77142857 13.13142857 30.77142857 9.25 28.125 C3.0601631 19.5280043 -0.44386094 10.6526625 0 0 Z " fill="#CB892A" transform="translate(333,267)"/>
<path d="M0 0 C4.37060927 2.68196478 5.76549745 5.06198981 7 10 C6.34 10.66 5.68 11.32 5 12 C4.731875 11.030625 4.46375 10.06125 4.1875 9.0625 C3.795625 8.051875 3.40375 7.04125 3 6 C2.01 5.67 1.02 5.34 0 5 C0 4.01 0 3.02 0 2 C-1.43793392 2.31049726 -2.8753318 2.6234776 -4.3125 2.9375 C-5.11300781 3.11152344 -5.91351563 3.28554687 -6.73828125 3.46484375 C-9.145401 3.99886159 -9.145401 3.99886159 -12 5 C-12 6.32 -12 7.64 -12 9 C-13 10 -14 11 -15 12 C-15.69100553 13.99172182 -16.35902703 15.99161804 -17 18 C-17.66 18.66 -18.32 19.32 -19 20 C-18.73383708 12.81360123 -16.42949888 7.67884472 -12 2 C-7.7791232 -1.07772267 -4.9812657 -1.58976565 0 0 Z " fill="#BA6D25" transform="translate(323,178)"/>
<path d="M0 0 C0.33 0.99 0.66 1.98 1 3 C1.66 3 2.32 3 3 3 C3.33 3.99 3.66 4.98 4 6 C5.98491642 5.73323796 5.98491642 5.73323796 8 5 C8.33 4.01 8.66 3.02 9 2 C9.99 2 10.98 2 12 2 C11.49396008 4.16874252 11.00016187 5.99967627 10 8 C11.32 8 12.64 8 14 8 C13.67 6.35 13.34 4.7 13 3 C14.32 3.33 15.64 3.66 17 4 C17.33 3.34 17.66 2.68 18 2 C18 6 18 6 16.125 8.1875 C13.59057576 10.34921479 12.51034861 10.9432946 9.1875 11.3125 C5.1723169 10.9188546 3.75792029 9.91113808 1 7 C-0.3125 3.75 -0.3125 3.75 -1 1 C-0.67 0.67 -0.34 0.34 0 0 Z " fill="#DFAF20" transform="translate(274,324)"/>
<path d="M0 0 C2.81901736 1.09416098 5.40449079 2.4537392 8 4 C8 4.33 8 4.66 8 5 C5.36 4.67 2.72 4.34 0 4 C0 3.34 0 2.68 0 2 C-5.99400868 2.276021 -5.99400868 2.276021 -11 5.375 C-13.30302161 7.84770008 -13.30302161 7.84770008 -13 11 C-14.32 11.33 -15.64 11.66 -17 12 C-17 12.66 -17 13.32 -17 14 C-17.66 14 -18.32 14 -19 14 C-19.33 14.99 -19.66 15.98 -20 17 C-20.66 16.67 -21.32 16.34 -22 16 C-16.87828277 6.64650931 -11.90078497 -1.59644676 0 0 Z " fill="#AD5926" transform="translate(386,223)"/>
<path d="M0 0 C0.82638376 2.89234315 1 4.88742431 1 8 C0.34 8 -0.32 8 -1 8 C-1.268125 8.7425 -1.53625 9.485 -1.8125 10.25 C-2.95297649 12.89110345 -4.28677072 14.71569429 -6 17 C-7.30662719 19.84383564 -8.16585075 22.60120898 -9 25.625 C-10 29 -10 29 -12 32 C-12.19185122 26.85309491 -11.59635341 22.57445506 -10.1875 17.625 C-9.85105469 16.40039062 -9.51460938 15.17578125 -9.16796875 13.9140625 C-8.78253906 12.95242187 -8.39710938 11.99078125 -8 11 C-7.01 10.67 -6.02 10.34 -5 10 C-4.505 8.2675 -4.505 8.2675 -4 6.5 C-3.67 5.345 -3.34 4.19 -3 3 C-2.01 2.67 -1.02 2.34 0 2 C0 1.34 0 0.68 0 0 Z " fill="#EC6C18" transform="translate(311,185)"/>
<path d="M0 0 C0.33 0 0.66 0 1 0 C1.23647385 17.7992051 0.98918547 35.2824943 -1 53 C-1.33 53 -1.66 53 -2 53 C-2.23647385 35.2007949 -1.98918547 17.7175057 0 0 Z " fill="#D2911E" transform="translate(241,241)"/>
<path d="M0 0 C0.66 0 1.32 0 2 0 C1.67 3.3 1.34 6.6 1 10 C1.66 10.33 2.32 10.66 3 11 C2.52820313 11.39960938 2.05640625 11.79921875 1.5703125 12.2109375 C-0.32662777 14.37212816 -0.63346041 15.80981873 -1.125 18.625 C-1.2796875 19.5015625 -1.434375 20.378125 -1.59375 21.28125 C-2.17647305 25.18101193 -2.62017782 29.07517086 -3 33 C-2.34 33.33 -1.68 33.66 -1 34 C-2.485 34.495 -2.485 34.495 -4 35 C-4 35.66 -4 36.32 -4 37 C-4.66 37 -5.32 37 -6 37 C-5.44030057 28.62574949 -4.08579985 20.53553089 -2.4375 12.3125 C-2.20353516 11.12205078 -1.96957031 9.93160156 -1.72851562 8.70507812 C-1.15729936 5.8023669 -0.58104763 2.90075626 0 0 Z " fill="#F05714" transform="translate(178,227)"/>
<path d="M0 0 C4.83611325 7.25416988 5.14223782 14.47558838 4.8984375 22.98046875 C4.89554395 28.65615891 6.0450219 34.22177765 7.109375 39.77905273 C7.48436535 41.84000823 7.75157775 43.91998998 8 46 C7.34 46.66 6.68 47.32 6 48 C5.30057439 43.25431052 4.60709572 38.50780023 3.91870117 33.76049805 C3.68458716 32.15154588 3.44895527 30.5428137 3.21166992 28.93432617 C1.79097971 19.29585918 0.5692168 9.7328512 0 0 Z " fill="#E17C1C" transform="translate(199,194)"/>
<path d="M0 0 C0.33 0 0.66 0 1 0 C2.37593102 7.88964703 3.34949245 15.78169515 4.125 23.75 C4.21249512 24.62422607 4.29999023 25.49845215 4.39013672 26.39916992 C4.91200139 31.95855119 5.07912095 37.41632175 5 43 C2.95182388 39.52528153 2.45675226 36.30354477 1.9296875 32.328125 C1.75566406 31.02359375 1.58164063 29.7190625 1.40234375 28.375 C1.31581543 27.69695312 1.22928711 27.01890625 1.14013672 26.3203125 C0.87749512 24.26948304 0.60177106 22.2207336 0.32421875 20.171875 C-1.36992683 7.40134254 -1.36992683 7.40134254 -1 1 C-0.67 0.67 -0.34 0.34 0 0 Z " fill="#AE8028" transform="translate(200,289)"/>
<path d="M0 0 C4.80795037 1.41410305 7.80475695 3.80732827 10.48828125 7.94140625 C11.55876905 9.93891441 12.5293114 11.76774723 13.1875 13.9375 C12.8575 14.9275 12.5275 15.9175 12.1875 16.9375 C10.8675 16.2775 9.5475 15.6175 8.1875 14.9375 C8.1875 13.6175 8.1875 12.2975 8.1875 10.9375 C7.5275 10.9375 6.8675 10.9375 6.1875 10.9375 C5.960625 10.36 5.73375 9.7825 5.5 9.1875 C3.29917108 5.41465043 0.59094128 3.31175101 -3.625 2.1875 C-4.346875 2.105 -5.06875 2.0225 -5.8125 1.9375 C-2.8125 -0.0625 -2.8125 -0.0625 0 0 Z " fill="#C57720" transform="translate(185.8125,177.0625)"/>
<path d="M0 0 C2 2 2 2 2.1953125 3.9453125 C2.13020833 5.96354167 2.06510417 7.98177083 2 10 C0.4375 11.125 0.4375 11.125 -2 12 C-4.34406932 11.37212429 -6.67793475 10.70491267 -9 10 C-11.33308448 10.26499604 -11.33308448 10.26499604 -13 11 C-13 9.68 -13 8.36 -13 7 C-12.34 7 -11.68 7 -11 7 C-10.67 6.01 -10.34 5.02 -10 4 C-9.34 4.66 -8.68 5.32 -8 6 C-5.41645782 6.16687448 -5.41645782 6.16687448 -3 6 C-2.01 4.02 -1.02 2.04 0 0 Z " fill="#F06025" transform="translate(225,237)"/>
<path d="M0 0 C0.99 0 1.98 0 3 0 C3.33 3.63 3.66 7.26 4 11 C3.67 10.34 3.34 9.68 3 9 C-3.6 9 -10.2 9 -17 9 C-16.67 8.34 -16.34 7.68 -16 7 C-11.05 7 -6.1 7 -1 7 C-1.33 5.35 -1.66 3.7 -2 2 C-1.34 1.34 -0.68 0.68 0 0 Z " fill="#D05929" transform="translate(259,256)"/>
<path d="M0 0 C0.33 0 0.66 0 1 0 C1.68074529 9.8708067 -1.2202585 18.94224109 -5 28 C-7 26 -7 26 -7.3125 23.1875 C-6.95802227 19.57182713 -5.8604449 18.07688964 -4 15 C-3.38692614 12.75623308 -2.92655158 10.50748189 -2.47265625 8.2265625 C-1.87281778 5.40087713 -0.97508246 2.71630114 0 0 Z " fill="#F3A728" transform="translate(170,262)"/>
<path d="M0 0 C0 0.66 0 1.32 0 2 C-0.66 2 -1.32 2 -2 2 C-2 2.66 -2 3.32 -2 4 C-2.99 4.33 -3.98 4.66 -5 5 C-6.4587688 6.29078411 -6.4587688 6.29078411 -8 8 C-8.825 8.763125 -9.65 9.52625 -10.5 10.3125 C-13.13941725 12.87636726 -13.13941725 12.87636726 -14.5 16.1875 C-16 19 -16 19 -18.3125 20.375 C-21.29262326 21.06805192 -23.95032327 21.14184543 -27 21 C-26.41605469 20.57074219 -25.83210938 20.14148438 -25.23046875 19.69921875 C-23.18070513 18.13766503 -21.24378368 16.51705017 -19.3125 14.8125 C-18.62542969 14.20921875 -17.93835938 13.6059375 -17.23046875 12.984375 C-15.66137092 11.58840005 -14.10233309 10.1810758 -12.55078125 8.765625 C-11.35001953 7.67507812 -11.35001953 7.67507812 -10.125 6.5625 C-9.38507813 5.88316406 -8.64515625 5.20382813 -7.8828125 4.50390625 C-6 3 -6 3 -4 3 C-4 2.34 -4 1.68 -4 1 C-2 0 -2 0 0 0 Z " fill="#BA5327" transform="translate(114,226)"/>
<path d="M0 0 C0.66 0 1.32 0 2 0 C1.21461233 9.68644792 -4.46741465 18.30001008 -10 26 C-11.03864166 22.88407501 -11.09036928 21.9737344 -10 19 C-9.34 18.67 -8.68 18.34 -8 18 C-7.27840576 16.35636866 -6.60648579 14.68949614 -6 13 C-5.34 13 -4.68 13 -4 13 C-4.04125 12.0925 -4.0825 11.185 -4.125 10.25 C-3.9522911 5.75956863 -2.45775231 3.68662846 0 0 Z " fill="#BD6E1C" transform="translate(367,269)"/>
<path d="M0 0 C0.66 0 1.32 0 2 0 C3.49477214 4.20444418 4.49777348 8.30397141 5.3125 12.6875 C6.51695784 18.57249348 8.3654463 23.56046465 11.109375 28.890625 C11.40328125 29.58671875 11.6971875 30.2828125 12 31 C11.67 31.66 11.34 32.32 11 33 C9.68 30.36 8.36 27.72 7 25 C6.34 25 5.68 25 5 25 C4.67 22.03 4.34 19.06 4 16 C3.34 16 2.68 16 2 16 C1.34 10.72 0.68 5.44 0 0 Z " fill="#FD9519" transform="translate(343,256)"/>
<path d="M0 0 C0.5 2 0.5 2 1 4 C1.309375 4.9590625 1.309375 4.9590625 1.625 5.9375 C2.09895218 8.54423701 1.55388314 10.40901645 1 13 C0.84660156 13.92039063 0.69320313 14.84078125 0.53515625 15.7890625 C0.37917969 16.72492188 0.22320312 17.66078125 0.0625 18.625 C-0.09089844 19.56601563 -0.24429687 20.50703125 -0.40234375 21.4765625 C-1 24 -1 24 -3 27 C-4.25473511 17.76333551 -3.8333727 9.92091602 -1 1 C-0.67 0.67 -0.34 0.34 0 0 Z " fill="#F67115" transform="translate(299,217)"/>
<path d="M0 0 C0.33 0 0.66 0 1 0 C-0.12909311 15.62902574 -0.12909311 15.62902574 -2 21 C-2.99 21.66 -3.98 22.32 -5 23 C-6.18032787 15.13114754 -6.18032787 15.13114754 -5 11 C-5.37907282 8.81296615 -5.37907282 8.81296615 -6 7 C-5.38125 6.95875 -4.7625 6.9175 -4.125 6.875 C-3.42375 6.58625 -2.7225 6.2975 -2 6 C-0.6954344 3.00384054 -0.6954344 3.00384054 0 0 Z " fill="#D18422" transform="translate(302,289)"/>
<path d="M0 0 C1.88667244 2.83000865 2.33227962 3.92567912 2.81640625 7.125 C2.94080078 7.91390625 3.06519531 8.7028125 3.19335938 9.515625 C3.37608398 10.74539062 3.37608398 10.74539062 3.5625 12 C3.81166599 13.6253289 4.06288568 15.25034463 4.31640625 16.875 C4.47798218 17.95394531 4.47798218 17.95394531 4.64282227 19.0546875 C4.99093874 21.20565818 4.99093874 21.20565818 6 24 C6.03954234 26.33299825 6.04401732 28.66708189 6 31 C4.35 31 2.7 31 1 31 C1.16113281 30.43796875 1.32226562 29.8759375 1.48828125 29.296875 C2.86963103 23.09661796 2.19573619 17.05521126 0.4453125 11.02734375 C-0.3547865 7.38478778 -0.15449569 3.70789661 0 0 Z " fill="#F15913" transform="translate(325,232)"/>
<path d="M0 0 C1.90271802 3.5399405 3.21985541 7.21654779 4.5625 11 C4.99691406 12.216875 5.43132812 13.43375 5.87890625 14.6875 C7.77395305 20.28680203 7.77395305 20.28680203 8 22 C7.34 22.66 6.68 23.32 6 24 C5.67 23.67 5.34 23.34 5 23 C4.34 23.99 3.68 24.98 3 26 C1.78490205 23.56980409 1.9651673 22.14165621 2.0625 19.4375 C2.1196823 15.04081672 1.51486062 11.23243935 0.4453125 6.984375 C-0.08484255 4.62192969 -0.15564608 2.41251427 0 0 Z " fill="#DB541F" transform="translate(206,219)"/>
<path d="M0 0 C0.59296875 0.21269531 1.1859375 0.42539063 1.796875 0.64453125 C0.02742995 2.10454873 -1.74373071 3.56248718 -3.515625 5.01953125 C-4.50175781 5.83164062 -5.48789062 6.64375 -6.50390625 7.48046875 C-10.68779305 10.83484399 -12.74451086 11.92113282 -18.078125 11.89453125 C-19.62113281 11.90226562 -19.62113281 11.90226562 -21.1953125 11.91015625 C-24.239407 11.64132713 -26.4465785 10.92617279 -29.203125 9.64453125 C-29.203125 9.31453125 -29.203125 8.98453125 -29.203125 8.64453125 C-26.87017725 8.60211402 -24.53609933 8.60360188 -22.203125 8.64453125 C-21.873125 8.97453125 -21.543125 9.30453125 -21.203125 9.64453125 C-18.87494536 10.01213856 -16.5412865 10.34694706 -14.203125 10.64453125 C-14.203125 9.98453125 -14.203125 9.32453125 -14.203125 8.64453125 C-13.543125 7.98453125 -12.883125 7.32453125 -12.203125 6.64453125 C-10.883125 6.64453125 -9.563125 6.64453125 -8.203125 6.64453125 C-8.203125 5.98453125 -8.203125 5.32453125 -8.203125 4.64453125 C-2.96161877 -0.47784984 -2.96161877 -0.47784984 0 0 Z " fill="#BC472D" transform="translate(409.203125,255.35546875)"/>
<path d="M0 0 C3.68270417 3.04223388 3.8235653 6.20036603 4.2734375 10.7890625 C4.37418474 13.60223548 4.41385609 16.21307547 4 19 C1.5 21.1875 1.5 21.1875 -1 22 C-1 20.02 -1 18.04 -1 16 C-0.01 15.67 0.98 15.34 2 15 C1.67 12.69 1.34 10.38 1 8 C0.34 8 -0.32 8 -1 8 C-0.67 5.36 -0.34 2.72 0 0 Z " fill="#DC8D1D" transform="translate(337,221)"/>
<path d="M0 0 C0.33 0.99 0.66 1.98 1 3 C-0.328125 5.1640625 -0.328125 5.1640625 -2.25 7.625 C-5.29266193 11.74438922 -7.10141941 15.34703119 -8.39453125 20.28515625 C-9 22 -9 22 -11 23 C-11.66 23.99 -12.32 24.98 -13 26 C-13 24.02 -13 22.04 -13 20 C-12.34 20 -11.68 20 -11 20 C-10.5875 18.865625 -10.175 17.73125 -9.75 16.5625 C-4.33603183 2.16801592 -4.33603183 2.16801592 0 0 Z " fill="#F35812" transform="translate(384,237)"/>
<path d="M0 0 C2.64 0 5.28 0 8 0 C11.34782974 5.24493326 12.94513949 9.87903309 14 16 C13.01 15.67 12.02 15.34 11 15 C11.33 13.35 11.66 11.7 12 10 C11.34 10 10.68 10 10 10 C9.938125 9.05125 9.87625 8.1025 9.8125 7.125 C9.4103125 5.578125 9.4103125 5.578125 9 4 C6.66666667 2.58333333 6.66666667 2.58333333 4 2 C3.01 1.67 2.02 1.34 1 1 C0.67 3.64 0.34 6.28 0 9 C-1.32 8.67 -2.64 8.34 -4 8 C-4 5 -4 5 -2.5625 3.4375 C-2.046875 2.963125 -1.53125 2.48875 -1 2 C-0.67 1.34 -0.34 0.68 0 0 Z " fill="#F2BF21" transform="translate(250,133)"/>
<path d="M0 0 C2.73905337 3.15178744 3.55269393 5.64817614 4.1875 9.75 C4.34605469 10.73484375 4.50460937 11.7196875 4.66796875 12.734375 C4.77753906 13.48203125 4.88710938 14.2296875 5 15 C6.32 15.33 7.64 15.66 9 16 C8.360625 16.495 7.72125 16.99 7.0625 17.5 C4.18484731 20.98806387 4.29769264 23.53461041 4 28 C3.67 28 3.34 28 3 28 C2.49468813 24.27153308 1.9966867 20.54212492 1.5 16.8125 C1.35691406 15.75740234 1.21382813 14.70230469 1.06640625 13.61523438 C0.93105469 12.59365234 0.79570312 11.57207031 0.65625 10.51953125 C0.53056641 9.58214111 0.40488281 8.64475098 0.27539062 7.67895508 C0.00995308 5.09682192 -0.04936064 2.59349011 0 0 Z " fill="#C99E23" transform="translate(263,272)"/>
<path d="M0 0 C2.21340088 3.64887008 2.56400944 7.1776257 3.0625 11.375 C3.6158309 15.9388367 4.20777483 20.47099594 5 25 C4.34 25 3.68 25 3 25 C2.67 25.66 2.34 26.32 2 27 C-1.62870159 9.32801822 -1.62870159 9.32801822 0 0 Z " fill="#F16C1A" transform="translate(204,211)"/>
<path d="M0 0 C0.66 0.33 1.32 0.66 2 1 C2.33 1.99 2.66 2.98 3 4 C5.50447516 5.21869929 5.50447516 5.21869929 8 6 C7.67 7.32 7.34 8.64 7 10 C2.70700357 11.26264601 0.12168689 10.62950412 -4 9 C-3.67 8.01 -3.34 7.02 -3 6 C-2.34 6 -1.68 6 -1 6 C-0.67 4.02 -0.34 2.04 0 0 Z " fill="#F54720" transform="translate(376,253)"/>
<path d="M0 0 C0.33 0 0.66 0 1 0 C2.9679704 10.10341946 3.22102569 19.7468639 3 30 C2.34 29.67 1.68 29.34 1 29 C-0.5501292 23.20895128 -0.11010699 17.07221191 -0.0625 11.125 C-0.05798828 10.05507812 -0.05347656 8.98515625 -0.04882812 7.8828125 C-0.03709749 5.25515014 -0.02068228 2.62760462 0 0 Z " fill="#D59D27" transform="translate(266,159)"/>
<path d="M0 0 C2.534112 2.534112 2.39257035 4.46230017 2.65625 7.9296875 C2.89512797 10.03948409 2.89512797 10.03948409 3.98828125 11.87890625 C5.29916632 14.62720969 5.45858593 17.0340794 5.6875 20.0625 C5.81705078 21.62677734 5.81705078 21.62677734 5.94921875 23.22265625 C6 26 6 26 5 29 C1.80929357 19.57678033 -0.19426779 9.98237543 0 0 Z " fill="#FD8D1B" transform="translate(326,229)"/>
<path d="M0 0 C2.625 0.375 2.625 0.375 5 1 C4.67 1.99 4.34 2.98 4 4 C5.32 4.33 6.64 4.66 8 5 C7.67 3.68 7.34 2.36 7 1 C8.98 1 10.96 1 13 1 C10.125 5.875 10.125 5.875 9 7 C7.48071962 7.07179964 5.95832518 7.08392007 4.4375 7.0625 C3.61121094 7.05347656 2.78492188 7.04445313 1.93359375 7.03515625 C1.29550781 7.02355469 0.65742188 7.01195312 0 7 C0.66 6.34 1.32 5.68 2 5 C0.68 4.01 -0.64 3.02 -2 2 C-1.34 1.34 -0.68 0.68 0 0 Z " fill="#F7A523" transform="translate(151,289)"/>
<path d="M0 0 C0.94427462 3.02388166 1.00185809 5.0397444 0.29296875 8.1171875 C0.11830078 8.88933594 -0.05636719 9.66148437 -0.23632812 10.45703125 C-0.42646484 11.25496094 -0.61660156 12.05289062 -0.8125 12.875 C-0.99103516 13.66519531 -1.16957031 14.45539063 -1.35351562 15.26953125 C-2.35206848 19.60260176 -3.50921365 23.80421217 -5 28 C-6.11328125 26.49609375 -6.11328125 26.49609375 -7 24 C-6.52179786 21.24381677 -5.95477508 18.7345659 -5.1875 16.0625 C-4.8051006 14.65779379 -4.42356971 13.25285081 -4.04296875 11.84765625 C-3.69878906 10.57792969 -3.35460937 9.30820312 -3 8 C-2.64756147 6.33726852 -2.30433475 4.67220491 -2 3 C-1.34 3 -0.68 3 0 3 C0 2.01 0 1.02 0 0 Z " fill="#EF620D" transform="translate(158,250)"/>
<path d="M0 0 C3.18748029 -0.02932572 6.37492528 -0.04690739 9.5625 -0.0625 C10.90538086 -0.07506836 10.90538086 -0.07506836 12.27539062 -0.08789062 C17.29997943 -0.10629571 22.04817291 0.13733602 27 1 C27.93065133 3.60582371 28.14917407 4.64198224 27.0625 7.25 C26.5365625 8.11625 26.5365625 8.11625 26 9 C25.7525 8.195625 25.505 7.39125 25.25 6.5625 C24.31160399 3.90053684 24.31160399 3.90053684 22.31640625 3.3515625 C14.82311879 2.21430133 7.12488625 2.34887953 0 5 C0 3.35 0 1.7 0 0 Z " fill="#AB441A" transform="translate(306,262)"/>
<path d="M0 0 C0.66 0 1.32 0 2 0 C2.04898438 0.62648438 2.09796875 1.25296875 2.1484375 1.8984375 C2.22320312 2.71570313 2.29796875 3.53296875 2.375 4.375 C2.44460937 5.18710937 2.51421875 5.99921875 2.5859375 6.8359375 C2.82892588 9.20334191 2.82892588 9.20334191 5 11 C6.35288974 13.70577949 7.1147438 15.29241325 6.625 18.3125 C6.41875 18.869375 6.2125 19.42625 6 20 C5.67 19.34 5.34 18.68 5 18 C4.34 18.66 3.68 19.32 3 20 C0.55833216 13.16914355 -0.41640288 7.2484945 0 0 Z " fill="#D7AA2E" transform="translate(207,338)"/>
<path d="M0 0 C1.98 0.99 1.98 0.99 4 2 C3.34 2 2.68 2 2 2 C2.20496094 2.75023437 2.40992188 3.50046875 2.62109375 4.2734375 C4.35427661 10.85787383 5.56395914 17.20377699 6 24 C6.66 24 7.32 24 8 24 C8.625 25.8125 8.625 25.8125 9 28 C8.34 28.99 7.68 29.98 7 31 C4.24555496 24.43352931 2.94059204 18.01436216 1.8125 11 C1.54663086 9.40865234 1.54663086 9.40865234 1.27539062 7.78515625 C0.84306521 5.19120374 0.4181251 2.59627256 0 0 Z " fill="#EC5B10" transform="translate(343,246)"/>
<path d="M0 0 C0.12375 0.61875 0.2475 1.2375 0.375 1.875 C0.87197356 4.19120832 0.87197356 4.19120832 3 6 C3 6.99 3 7.98 3 9 C3.350625 9.845625 3.70125 10.69125 4.0625 11.5625 C4.371875 12.366875 4.68125 13.17125 5 14 C4.67 14.66 4.34 15.32 4 16 C0.66462511 14.88820837 -0.63707344 13.52588702 -3 11 C-2.67 10.01 -2.34 9.02 -2 8 C-2 7.34 -2 6.68 -2 6 C-1.17647059 1.17647059 -1.17647059 1.17647059 0 0 Z " fill="#F9BE22" transform="translate(214,347)"/>
<path d="M0 0 C2.6855594 2.6855594 3.06049974 5.37621328 4 9 C1.03 9 -1.94 9 -5 9 C-5.33 9.99 -5.66 10.98 -6 12 C-7.65 10.68 -9.3 9.36 -11 8 C-7.46588679 5.87953208 -4.05606165 5.46800711 0 5 C0 3.35 0 1.7 0 0 Z " fill="#F74824" transform="translate(127,251)"/>
<path d="M0 0 C0.33 0 0.66 0 1 0 C1 1.98 1 3.96 1 6 C0.34 6 -0.32 6 -1 6 C-1.33 10.95 -1.66 15.9 -2 21 C-2.66 21 -3.32 21 -4 21 C-4.66 21.66 -5.32 22.32 -6 23 C-5.50387003 14.89654389 -2.679915 7.59474067 0 0 Z " fill="#B47223" transform="translate(173,187)"/>
<path d="M0 0 C0.33 0 0.66 0 1 0 C3.01291888 9.96687989 3.57227835 19.86975045 4 30 C3.34 30 2.68 30 2 30 C1.22718595 25.26651392 1 20.78743012 1 16 C0.83628906 15.40058594 0.67257813 14.80117187 0.50390625 14.18359375 C-0.15353657 11.33467484 -0.094241 8.67017233 -0.0625 5.75 C-0.04896484 4.13351563 -0.04896484 4.13351563 -0.03515625 2.484375 C-0.02355469 1.66453125 -0.01195312 0.8446875 0 0 Z " fill="#F26212" transform="translate(191,232)"/>
<path d="M0 0 C3.875 1.75 3.875 1.75 5 4 C6.258125 4 7.51625 4 8.8125 4 C11.20833333 4 13.60416667 4 16 4 C13.76726097 6.7479865 12.60907583 7.89632752 9.0625 8.5 C5.27943682 7.88235703 3.65631656 6.73221132 1 4 C0.1875 1.75 0.1875 1.75 0 0 Z " fill="#B08F2A" transform="translate(211,358)"/>
<path d="M0 0 C3.375 0.3125 3.375 0.3125 7 1 C7.66 1.99 8.32 2.98 9 4 C9.66 4 10.32 4 11 4 C11 4.99 11 5.98 11 7 C11.99 7 12.98 7 14 7 C14.99 8.98 15.98 10.96 17 13 C13.56546802 11.46203092 10.85610724 9.4264398 7.9375 7.0625 C7.08027344 6.37285156 6.22304687 5.68320312 5.33984375 4.97265625 C3.45530297 3.38385308 1.70131911 1.77941245 0 0 Z " fill="#B9402B" transform="translate(89,253)"/>
<path d="M0 0 C2.31 0.66 4.62 1.32 7 2 C7 2.66 7 3.32 7 4 C6.01 4.061875 6.01 4.061875 5 4.125 C0.61086045 5.4051657 -2.48526529 8.14809367 -6 11 C-6.33 10.01 -6.66 9.02 -7 8 C-6.4946875 7.59007812 -5.989375 7.18015625 -5.46875 6.7578125 C-4.49421875 5.94957031 -4.49421875 5.94957031 -3.5 5.125 C-2.8503125 4.59132812 -2.200625 4.05765625 -1.53125 3.5078125 C-0.77328125 2.76144531 -0.77328125 2.76144531 0 2 C0 1.34 0 0.68 0 0 Z " fill="#F36C1E" transform="translate(388,227)"/>
<path d="M0 0 C2.94419471 2.94419471 4.55853038 4.65836914 6.5 8.0625 C8.31686572 11.08310958 9.90571345 13.16634871 13 15 C11.68 15.33 10.36 15.66 9 16 C8.67 15.01 8.34 14.02 8 13 C6.35 12.67 4.7 12.34 3 12 C2.01 8.04 1.02 4.08 0 0 Z " fill="#B55A20" transform="translate(133,230)"/>
<path d="M0 0 C0.33 0 0.66 0 1 0 C1.3152595 5.98993047 0.68219822 9.63560356 -2 15 C-2.66 15 -3.32 15 -4 15 C-4.21278058 10.53160785 -3.59138085 7.17737474 -2 3 C-1.34 3 -0.68 3 0 3 C0 2.01 0 1.02 0 0 Z " fill="#F7971E" transform="translate(302,281)"/>
<path d="M0 0 C0.99 0.33 1.98 0.66 3 1 C3.66 4.63 4.32 8.26 5 12 C5.66 12 6.32 12 7 12 C7.66 14.31 8.32 16.62 9 19 C8.34 19.66 7.68 20.32 7 21 C5.82504857 18.06574629 4.66149148 15.12710487 3.5 12.1875 C3.16613281 11.35412109 2.83226562 10.52074219 2.48828125 9.66210938 C2.17246094 8.85966797 1.85664063 8.05722656 1.53125 7.23046875 C1.23798828 6.49207764 0.94472656 5.75368652 0.64257812 4.99291992 C0 3 0 3 0 0 Z " fill="#B86E23" transform="translate(132,263)"/>
<path d="M0 0 C0.33 0 0.66 0 1 0 C1.66 3.3 2.32 6.6 3 10 C7.29 10.33 11.58 10.66 16 11 C13 14 13 14 10.625 14.28515625 C7.96070823 14.05916722 5.56297162 13.7723433 3 13 C-0.32124185 8.89728948 -0.30881488 5.14691466 0 0 Z " fill="#A3431E" transform="translate(341,234)"/>
<path d="M0 0 C5.39882424 4.59474404 10.71333087 9.27676273 16 14 C15.01 14.66 14.02 15.32 13 16 C13 15.34 13 14.68 13 14 C12.01 13.67 11.02 13.34 10 13 C7.8125 11.0625 7.8125 11.0625 6 9 C6 8.34 6 7.68 6 7 C5.38125 6.95875 4.7625 6.9175 4.125 6.875 C3.42375 6.58625 2.7225 6.2975 2 6 C0.75 2.9375 0.75 2.9375 0 0 Z " fill="#CA5B2D" transform="translate(395,229)"/>
<path d="M0 0 C0.66 0.66 1.32 1.32 2 2 C1.84319847 4.97035351 1.57603527 7.80923002 1.1875 10.75 C1.04344727 11.94882812 1.04344727 11.94882812 0.89648438 13.171875 C0.37008876 17.46782846 -0.25044311 21.73646537 -1 26 C-1.33 26 -1.66 26 -2 26 C-2.02693575 23.87506859 -2.04636628 21.75004088 -2.0625 19.625 C-2.07410156 18.44164062 -2.08570313 17.25828125 -2.09765625 16.0390625 C-2 13 -2 13 -1 11 C-0.7724985 9.12943209 -0.59037189 7.25314042 -0.4375 5.375 C-0.35371094 4.37210937 -0.26992187 3.36921875 -0.18359375 2.3359375 C-0.12300781 1.56507813 -0.06242188 0.79421875 0 0 Z " fill="#AD7B22" transform="translate(235,319)"/>
<path d="M0 0 C1.65 0.99 3.3 1.98 5 3 C4.67 7.95 4.34 12.9 4 18 C3.67 18 3.34 18 3 18 C2.49645133 15.56318413 1.99703244 13.12564561 1.5 10.6875 C1.35691406 9.99720703 1.21382813 9.30691406 1.06640625 8.59570312 C0.47374956 5.67475227 0 2.98891878 0 0 Z " fill="#C89A24" transform="translate(267,301)"/>
<path d="M0 0 C1.4962608 2.39179235 2.02832609 3.65688015 1.79296875 6.5078125 C1.59316406 7.37148437 1.39335937 8.23515625 1.1875 9.125 C0.99542969 9.99382812 0.80335938 10.86265625 0.60546875 11.7578125 C0 14 0 14 -1 16 C-1.35613097 17.66194453 -1.69208308 19.328451 -2 21 C-2.33 21 -2.66 21 -3 21 C-3.21859211 14.98871706 -2.49689006 9.81274098 -1 4 C-0.81308594 3.25234375 -0.62617188 2.5046875 -0.43359375 1.734375 C-0.29050781 1.16203125 -0.14742187 0.5896875 0 0 Z " fill="#FB7B10" transform="translate(182,205)"/>
<path d="M0 0 C0.33 0 0.66 0 1 0 C1.02712153 1.916588 1.04645097 3.8332873 1.0625 5.75 C1.07410156 6.81734375 1.08570313 7.8846875 1.09765625 8.984375 C1.0136831 11.57746602 0.62986997 13.51988701 0 16 C-0.06688591 17.91561254 -0.08531719 19.83335592 -0.0625 21.75 C-0.05347656 22.73484375 -0.04445312 23.7196875 -0.03515625 24.734375 C-0.02355469 25.48203125 -0.01195312 26.2296875 0 27 C-0.66 27.33 -1.32 27.66 -2 28 C-2.02684312 25.18743719 -2.04676188 22.37512759 -2.0625 19.5625 C-2.07087891 18.76005859 -2.07925781 17.95761719 -2.08789062 17.13085938 C-2.0965143 15.08704779 -2.0522815 13.04316098 -2 11 C-1.67 10.67 -1.34 10.34 -1 10 C-0.76712992 8.31816052 -0.58735834 6.6287584 -0.4375 4.9375 C-0.35371094 4.01839844 -0.26992187 3.09929687 -0.18359375 2.15234375 C-0.12300781 1.44207031 -0.06242188 0.73179687 0 0 Z " fill="#F3A82A" transform="translate(232,208)"/>
<path d="M0 0 C2.41213045 3.61819568 2.63202821 6.79260618 3.0625 11 C3.63026307 16.57623482 3.63026307 16.57623482 5 22 C4.5625 24.6875 4.5625 24.6875 4 27 C2.03347516 24.05021274 1.69562168 23.0794785 1.3671875 19.7265625 C1.28339844 18.9015625 1.19960938 18.0765625 1.11328125 17.2265625 C0.99533203 15.93878906 0.99533203 15.93878906 0.875 14.625 C0.78863281 13.77421875 0.70226562 12.9234375 0.61328125 12.046875 C0.21801791 8.01895337 -0.11673902 4.05251157 0 0 Z " fill="#FDA114" transform="translate(256,195)"/>
<path d="M0 0 C0 0.33 0 0.66 0 1 C-1.98 1 -3.96 1 -6 1 C-6.2475 1.804375 -6.495 2.60875 -6.75 3.4375 C-8 6 -8 6 -10.125 6.8125 C-10.74375 6.874375 -11.3625 6.93625 -12 7 C-11.72776186 3.64239623 -11.41629629 2.35682539 -8.8125 0.125 C-5.41866747 -1.23253301 -3.49402134 -0.89381941 0 0 Z " fill="#B79328" transform="translate(256,132)"/>
<path d="M0 0 C0.33 0 0.66 0 1 0 C1.5304408 2.26860837 2.04905434 4.53998489 2.5625 6.8125 C2.85253906 8.07707031 3.14257812 9.34164062 3.44140625 10.64453125 C4 14 4 14 3 17 C1.51171875 15.94921875 1.51171875 15.94921875 0 14 C-0.29296875 10.64453125 -0.29296875 10.64453125 -0.1875 6.8125 C-0.16042969 5.54019531 -0.13335937 4.26789063 -0.10546875 2.95703125 C-0.07066406 1.98121094 -0.03585937 1.00539062 0 0 Z " fill="#C37721" transform="translate(335,205)"/>
<path d="M0 0 C0.66 0 1.32 0 2 0 C1.58221009 5.7097955 -0.57546571 8.60957142 -4 13 C-5.03864166 9.88407501 -5.09036928 8.9737344 -4 6 C-3.34 5.67 -2.68 5.34 -2 5 C-1.27840576 3.35636866 -0.60648579 1.68949614 0 0 Z " fill="#D08122" transform="translate(361,282)"/>
<path d="M0 0 C0.33 0 0.66 0 1 0 C1.16682272 4.92127034 1.24828052 8.50343896 -1 13 C-3 11 -3 11 -3.1953125 9.0546875 C-3.13020833 7.03645833 -3.06510417 5.01822917 -3 3 C-2.34 3 -1.68 3 -1 3 C-0.67 2.01 -0.34 1.02 0 0 Z " fill="#D69E28" transform="translate(232,341)"/>
<path d="M0 0 C1.98 0.66 3.96 1.32 6 2 C6 3.32 6 4.64 6 6 C8.97 6.33 11.94 6.66 15 7 C15 7.33 15 7.66 15 8 C7.01551481 8.78279267 7.01551481 8.78279267 3 5.6875 C1 3 1 3 0 0 Z " fill="#B27C2D" transform="translate(339,289)"/>
<path d="M0 0 C0.33 0 0.66 0 1 0 C1 4.95 1 9.9 1 15 C0.34 15 -0.32 15 -1 15 C-1.33 15.66 -1.66 16.32 -2 17 C-2 14.37886292 -1.68707555 12.49064888 -1 10 C-1.99 10 -2.98 10 -4 10 C-3 8 -3 8 -1 6 C-0.60235737 4.01178687 -0.26224651 2.01055661 0 0 Z " fill="#F6B120" transform="translate(238,280)"/>
<path d="M0 0 C0.33 0 0.66 0 1 0 C1.23538321 6.70842135 0.84160316 12.23759526 -3 18 C-3.42765417 11.58518742 -1.85743168 6.11404596 0 0 Z " fill="#C46C28" transform="translate(302,199)"/>
<path d="M0 0 C0.66 0.33 1.32 0.66 2 1 C2 1.99 2 2.98 2 4 C1.54625 4.433125 1.0925 4.86625 0.625 5.3125 C-1.56883374 7.59071196 -2.04829567 10.0179931 -3 13 C-3.66 13.66 -4.32 14.32 -5 15 C-4.56826496 8.84777564 -3.34594658 5.18082051 0 0 Z " fill="#B95D22" transform="translate(309,183)"/>
<path d="M0 0 C1.32 0.33 2.64 0.66 4 1 C4 1.66 4 2.32 4 3 C3.01 3.495 3.01 3.495 2 4 C2.185625 4.804375 2.37125 5.60875 2.5625 6.4375 C2.706875 7.283125 2.85125 8.12875 3 9 C2.67 9.33 2.34 9.66 2 10 C1.92820036 11.51928038 1.91607993 13.04167482 1.9375 14.5625 C1.94652344 15.38878906 1.95554688 16.21507812 1.96484375 17.06640625 C1.97644531 17.70449219 1.98804688 18.34257812 2 19 C1.67 19 1.34 19 1 19 C0.03794912 12.62641289 -0.10655578 6.44070471 0 0 Z " fill="#FAB31D" transform="translate(203,304)"/>
<path d="M0 0 C0.33 0 0.66 0 1 0 C1 5.94 1 11.88 1 18 C0.67 16.68 0.34 15.36 0 14 C-0.99 14.33 -1.98 14.66 -3 15 C-2.01 10.05 -1.02 5.1 0 0 Z " fill="#B86B1E" transform="translate(229,222)"/>
<path d="M0 0 C4.87685861 1.35468295 6.48592381 3.71675909 9 8 C8.34 9.32 7.68 10.64 7 12 C6.731875 11.030625 6.46375 10.06125 6.1875 9.0625 C5.795625 8.051875 5.40375 7.04125 5 6 C4.01 5.67 3.02 5.34 2 5 C0.8125 2.4375 0.8125 2.4375 0 0 Z " fill="#C57625" transform="translate(321,178)"/>
<path d="M0 0 C0.66 0.33 1.32 0.66 2 1 C1.3125 3.375 1.3125 3.375 0 6 C-2.625 7.3125 -2.625 7.3125 -5 8 C-5.33 7.34 -5.66 6.68 -6 6 C-5.01 6 -4.02 6 -3 6 C-3.33 4.35 -3.66 2.7 -4 1 C-2.68 1.33 -1.36 1.66 0 2 C0 1.34 0 0.68 0 0 Z " fill="#CC9928" transform="translate(291,326)"/>
<path d="M0 0 C0.33 0 0.66 0 1 0 C0.67 3.63 0.34 7.26 0 11 C-0.66 11 -1.32 11 -2 11 C-2 9.68 -2 8.36 -2 7 C-5.63 7 -9.26 7 -13 7 C-13 6.67 -13 6.34 -13 6 C-11.95199219 5.90912109 -11.95199219 5.90912109 -10.8828125 5.81640625 C-9.97273437 5.73261719 -9.06265625 5.64882812 -8.125 5.5625 C-7.22007812 5.48128906 -6.31515625 5.40007812 -5.3828125 5.31640625 C-2.98889139 5.13010715 -2.98889139 5.13010715 -1 4 C-0.34786708 1.97536745 -0.34786708 1.97536745 0 0 Z " fill="#B44413" transform="translate(160,239)"/>
<path d="M0 0 C1.65 0 3.3 0 5 0 C5.2475 0.598125 5.495 1.19625 5.75 1.8125 C7.16370012 4.28647521 8.65055383 5.43370255 11 7 C9.35 7 7.7 7 6 7 C5.34 5.68 4.68 4.36 4 3 C2.68 3 1.36 3 0 3 C0 2.01 0 1.02 0 0 Z " fill="#F79714" transform="translate(144,288)"/>
<path d="M0 0 C0.66 0 1.32 0 2 0 C2 0.66 2 1.32 2 2 C2.99 2 3.98 2 5 2 C6.0625 3.8125 6.0625 3.8125 7 6 C6.67 6.99 6.34 7.98 6 9 C4.68 8.34 3.36 7.68 2 7 C2 5.68 2 4.36 2 3 C1.34 3 0.68 3 0 3 C0 2.01 0 1.02 0 0 Z " fill="#E27F17" transform="translate(192,185)"/>
<path d="M0 0 C4.28760234 3.4005122 5.96367838 7.74090992 7 13 C6.67 13.99 6.34 14.98 6 16 C5.34 15.67 4.68 15.34 4 15 C4.33 13.35 4.66 11.7 5 10 C4.34 10 3.68 10 3 10 C2.01 6.7 1.02 3.4 0 0 Z " fill="#A07F28" transform="translate(257,133)"/>
<path d="M0 0 C0.33 0 0.66 0 1 0 C1.25287193 6.06892629 0.69832609 11.16200408 -1 17 C-1.33 17 -1.66 17 -2 17 C-2.3690205 5.47835991 -2.3690205 5.47835991 0 0 Z " fill="#C98A28" transform="translate(170,262)"/>
<path d="M0 0 C2 2 2 2 2.265625 4.09375 C2.25789063 5.28484375 2.25789063 5.28484375 2.25 6.5 C2.25515625 7.2940625 2.2603125 8.088125 2.265625 8.90625 C2 11 2 11 0 13 C-0.19466332 11.20909747 -0.38051213 9.41723495 -0.5625 7.625 C-0.66691406 6.62726563 -0.77132813 5.62953125 -0.87890625 4.6015625 C-1 2 -1 2 0 0 Z " fill="#DE7414" transform="translate(369,256)"/>
<path d="M0 0 C0.33 0.99 0.66 1.98 1 3 C0.05988318 4.70116376 -0.94895617 6.36504293 -2 8 C-2.69822617 9.65369357 -3.37498605 11.31727014 -4 13 C-4.99 13 -5.98 13 -7 13 C-6.690625 12.236875 -6.38125 11.47375 -6.0625 10.6875 C-5.32106407 8.81210323 -4.63771783 6.91315348 -4 5 C-3.34 5 -2.68 5 -2 5 C-1.34 3.35 -0.68 1.7 0 0 Z " fill="#FC7116" transform="translate(377,245)"/>
<path d="M0 0 C1.44558008 2.77753377 2.65035413 5.54539908 3.6875 8.5 C3.95949219 9.2528125 4.23148438 10.005625 4.51171875 10.78125 C5.0519311 13.23597493 4.79774824 14.64423338 4 17 C0.68341387 12.0251208 -0.38479461 5.96431647 0 0 Z " fill="#BB5127" transform="translate(206,219)"/>
<path d="M0 0 C2.31 0.33 4.62 0.66 7 1 C6.67 2.32 6.34 3.64 6 5 C3.03 4.505 3.03 4.505 0 4 C0 2.68 0 1.36 0 0 Z " fill="#F68B17" transform="translate(180,179)"/>
<path d="M0 0 C0.33 0.99 0.66 1.98 1 3 C1.66 3 2.32 3 3 3 C3.33 3.99 3.66 4.98 4 6 C4.99 6.33 5.98 6.66 7 7 C6.67 7.99 6.34 8.98 6 10 C2.19118361 8.55527654 0.70257114 6.67396929 -1 3 C-0.67 2.01 -0.34 1.02 0 0 Z " fill="#C09E2D" transform="translate(274,324)"/>
<path d="M0 0 C0.598125 0.474375 1.19625 0.94875 1.8125 1.4375 C4.00382924 3.16465744 4.00382924 3.16465744 7 4 C6.67 4.99 6.34 5.98 6 7 C4.68 7 3.36 7 2 7 C0 4 0 4 0 0 Z " fill="#F8A313" transform="translate(286,320)"/>
<path d="M0 0 C0.33 0 0.66 0 1 0 C0.85764543 1.72945653 0.71095618 3.45855654 0.5625 5.1875 C0.48128906 6.15042969 0.40007812 7.11335937 0.31640625 8.10546875 C0.02333849 10.78649602 -0.42703754 13.3662986 -1 16 C-1.33 16 -1.66 16 -2 16 C-2.05423638 14.08364783 -2.09289963 12.16685075 -2.125 10.25 C-2.14820313 9.18265625 -2.17140625 8.1153125 -2.1953125 7.015625 C-2.00487687 4.07529894 -1.52670104 2.47638122 0 0 Z " fill="#FE9221" transform="translate(174,242)"/>
<path d="M0 0 C3.465 1.485 3.465 1.485 7 3 C4.01353231 4.99097846 1.40312738 5.94124926 -2 7 C-2 5.68 -2 4.36 -2 3 C-1.34 3 -0.68 3 0 3 C0 2.01 0 1.02 0 0 Z " fill="#DA501E" transform="translate(214,241)"/>
<path d="M0 0 C2.31 0.33 4.62 0.66 7 1 C7 1.99 7 2.98 7 4 C5 5 5 5 1.875 4.0625 C0.92625 3.711875 -0.0225 3.36125 -1 3 C-0.67 2.01 -0.34 1.02 0 0 Z " fill="#D44125" transform="translate(373,259)"/>
<path d="M0 0 C1.32 0.33 2.64 0.66 4 1 C4.33 2.65 4.66 4.3 5 6 C4.01 6.495 4.01 6.495 3 7 C1.5 5.75 1.5 5.75 0 4 C0 2.68 0 1.36 0 0 Z " fill="#FA7D0E" transform="translate(131,257)"/>
<path d="M0 0 C1.21386936 3.64160808 0.6674695 4.33165469 -0.9375 7.6875 C-1.31777344 8.49574219 -1.69804687 9.30398437 -2.08984375 10.13671875 C-2.39019531 10.75160156 -2.69054687 11.36648437 -3 12 C-3.66666667 9.33333333 -4.33333333 6.66666667 -5 4 C-3.35 3.34 -1.7 2.68 0 2 C0 1.34 0 0.68 0 0 Z " fill="#C74A19" transform="translate(363,240)"/>
<path d="M0 0 C0.66 0 1.32 0 2 0 C1.85851011 1.6045556 1.71164314 3.20863767 1.5625 4.8125 C1.48128906 5.70582031 1.40007812 6.59914062 1.31640625 7.51953125 C1 10 1 10 0 13 C-0.66 13 -1.32 13 -2 13 C-1.34 8.71 -0.68 4.42 0 0 Z " fill="#F46511" transform="translate(178,227)"/>
<path d="M0 0 C2.43841124 2.43841124 2.76152751 4.18566115 3.625 7.5 C4.01558594 8.96953125 4.01558594 8.96953125 4.4140625 10.46875 C5 13 5 13 5 15 C4.34 15 3.68 15 3 15 C0.5978396 10.1956792 0.38877771 5.26896105 0 0 Z " fill="#A76623" transform="translate(330,188)"/>
<path d="M0 0 C1.98 0.66 3.96 1.32 6 2 C6 2.66 6 3.32 6 4 C2.7 4 -0.6 4 -4 4 C-3.67 3.34 -3.34 2.68 -3 2 C-2.01 2 -1.02 2 0 2 C0 1.34 0 0.68 0 0 Z " fill="#EC522F" transform="translate(318,259)"/>
<path d="M0 0 C0 0.99 0 1.98 0 3 C-1.32 3.33 -2.64 3.66 -4 4 C-4 4.66 -4 5.32 -4 6 C-4.66 6 -5.32 6 -6 6 C-6.33 6.99 -6.66 7.98 -7 9 C-7.66 8.67 -8.32 8.34 -9 8 C-7.13554727 3.64961029 -5.02378599 0 0 0 Z " fill="#D46C23" transform="translate(373,231)"/>
<path d="M0 0 C2.34290892 2.48434437 2.97982934 3.77731593 3.29296875 7.234375 C3.25816406 8.39453125 3.22335937 9.5546875 3.1875 10.75 C3.16042969 11.92046875 3.13335937 13.0909375 3.10546875 14.296875 C3.07066406 15.18890625 3.03585937 16.0809375 3 17 C2.67 17 2.34 17 2 17 C1.66151348 15.10507994 1.32943089 13.20901534 1 11.3125 C0.814375 10.25675781 0.62875 9.20101563 0.4375 8.11328125 C0.04931926 5.35095938 -0.08259976 2.78257957 0 0 Z " fill="#F9720D" transform="translate(281,280)"/>
<path d="M0 0 C3.32238501 4.42984668 3.48314281 5.68542913 3 11 C2.34 11.99 1.68 12.98 1 14 C0.67 9.38 0.34 4.76 0 0 Z " fill="#A57E1F" transform="translate(263,272)"/>
<path d="M0 0 C0.33 0 0.66 0 1 0 C1 1.65 1 3.3 1 5 C1.66 5 2.32 5 3 5 C3.625 6.8125 3.625 6.8125 4 9 C3.01 10.485 3.01 10.485 2 12 C1.4654744 10.75579353 0.94791389 9.50429064 0.4375 8.25 C0.14746094 7.55390625 -0.14257812 6.8578125 -0.44140625 6.140625 C-1.07831803 3.69987216 -0.80248831 2.3596345 0 0 Z " fill="#F2680E" transform="translate(348,265)"/>
<path d="M0 0 C0.33 0 0.66 0 1 0 C1.91457003 5.56157448 2.32086397 9.675665 0 15 C-0.33 15 -0.66 15 -1 15 C-1.18451025 4.44191344 -1.18451025 4.44191344 0 0 Z " fill="#FEAF15" transform="translate(228,261)"/>
<path d="M0 0 C0.33 0 0.66 0 1 0 C1.33 4.62 1.66 9.24 2 14 C1.34 14 0.68 14 0 14 C-0.91297308 9.02936879 -0.91297308 4.97063121 0 0 Z " fill="#F25316" transform="translate(193,248)"/>
<path d="M0 0 C0.99 0.495 0.99 0.495 2 1 C3.29411765 8.41176471 3.29411765 8.41176471 2 11 C1.34 11 0.68 11 0 11 C0 7.37 0 3.74 0 0 Z " fill="#EDB631" transform="translate(205,324)"/>
<path d="M0 0 C0.66 0 1.32 0 2 0 C2 2.31 2 4.62 2 7 C1.01 7 0.02 7 -1 7 C-1.625 4.625 -1.625 4.625 -2 2 C-1.34 1.34 -0.68 0.68 0 0 Z " fill="#F44D23" transform="translate(259,256)"/>
<path d="M0 0 C7.42857143 -0.28571429 7.42857143 -0.28571429 11 2 C11 2.33 11 2.66 11 3 C7.37 2.67 3.74 2.34 0 2 C0 1.34 0 0.68 0 0 Z " fill="#AF5A2E" transform="translate(118,223)"/>
<path d="M0 0 C3.14624993 -0.26218749 4.61837017 -0.24754367 7.3125 1.5 C8.1478125 2.2425 8.1478125 2.2425 9 3 C8.01 3.66 7.02 4.32 6 5 C5.01 4.67 4.02 4.34 3 4 C3 3.01 3 2.02 3 1 C2.01 1.33 1.02 1.66 0 2 C0 1.34 0 0.68 0 0 Z " fill="#F54D22" transform="translate(97,256)"/>
<path d="M0 0 C2.1875 0.3125 2.1875 0.3125 4 1 C1.03 3.475 1.03 3.475 -2 6 C-2.33 5.01 -2.66 4.02 -3 3 C-1.75 1.4375 -1.75 1.4375 0 0 Z " fill="#FA6516" transform="translate(384,232)"/>
<path d="M0 0 C0.33 0.66 0.66 1.32 1 2 C1.66 2 2.32 2 3 2 C3 4.97 3 7.94 3 11 C2.34 10.67 1.68 10.34 1 10 C0.5859375 7.71484375 0.5859375 7.71484375 0.375 4.9375 C0.30023438 4.01839844 0.22546875 3.09929687 0.1484375 2.15234375 C0.09945313 1.44207031 0.05046875 0.73179687 0 0 Z " fill="#D1A835" transform="translate(262,147)"/>
<path d="M0 0 C1.98 0 3.96 0 6 0 C3.25 4.875 3.25 4.875 1 6 C0.67 4.02 0.34 2.04 0 0 Z " fill="#C68B24" transform="translate(158,290)"/>
<path d="M0 0 C1.39195915 4.17587745 -0.17676781 6.13474776 -2 10 C-2.66 9.34 -3.32 8.68 -4 8 C-3.64644564 5.73725212 -3.02455574 4.04911148 -2 2 C-1.34 2 -0.68 2 0 2 C0 1.34 0 0.68 0 0 Z " fill="#B87924" transform="translate(167,280)"/>
<path d="M0 0 C1.79068573 2.6860286 2.66055791 4.6626589 3.625 7.6875 C3.88539063 8.49574219 4.14578125 9.30398437 4.4140625 10.13671875 C4.60742188 10.75160156 4.80078125 11.36648437 5 12 C4.01 11.67 3.02 11.34 2 11 C0.37676246 7.24092359 -0.23994929 4.07913787 0 0 Z " fill="#A55425" transform="translate(275,230)"/>
<path d="M0 0 C3.81684226 1.55500981 6.19195732 4.03595495 9 7 C8.01 7.33 7.02 7.66 6 8 C6 7.34 6 6.68 6 6 C5.01 5.67 4.02 5.34 3 5 C1.3125 3.5625 1.3125 3.5625 0 2 C0 1.34 0 0.68 0 0 Z " fill="#BE542F" transform="translate(402,237)"/>
<path d="M0 0 C0.75 1.75 0.75 1.75 1 4 C-0.8125 6.25 -0.8125 6.25 -3 8 C-3.66 8 -4.32 8 -5 8 C-3.8141763 4.62496331 -2.72426311 2.35277269 0 0 Z " fill="#B47027" transform="translate(179,179)"/>
<path d="M0 0 C0.66 0.33 1.32 0.66 2 1 C2 2.98 2 4.96 2 7 C1.67 6.34 1.34 5.68 1 5 C0.34 5 -0.32 5 -1 5 C-1.33 5.66 -1.66 6.32 -2 7 C-2.33 6.01 -2.66 5.02 -3 4 C-2.34 4 -1.68 4 -1 4 C-0.67 2.68 -0.34 1.36 0 0 Z " fill="#F8B41D" transform="translate(227,352)"/>
<path d="M0 0 C0.12375 0.61875 0.2475 1.2375 0.375 1.875 C0.87197356 4.19120832 0.87197356 4.19120832 3 6 C2.01 6.66 1.02 7.32 0 8 C-0.66 7.34 -1.32 6.68 -2 6 C-1.44444444 1.44444444 -1.44444444 1.44444444 0 0 Z " fill="#FCBE11" transform="translate(214,347)"/>
<path d="M0 0 C0.99 0.99 1.98 1.98 3 3 C2.6875 6.6875 2.6875 6.6875 2 10 C1.34 9.67 0.68 9.34 0 9 C0 6.03 0 3.06 0 0 Z " fill="#F0C234" transform="translate(267,292)"/>
<path d="M0 0 C2.125 0.375 2.125 0.375 4 1 C-1.75 6 -1.75 6 -4 6 C-2.84826645 3.53199953 -1.95216435 1.95216435 0 0 Z " fill="#A24126" transform="translate(407,255)"/>
<path d="M0 0 C2 2 2 2 2.125 4.625 C2.08375 5.40875 2.0425 6.1925 2 7 C0.68 7 -0.64 7 -2 7 C-1.42415568 4.61435923 -0.77772405 2.33317216 0 0 Z " fill="#D25422" transform="translate(225,237)"/>
<path d="M0 0 C0.66 0.33 1.32 0.66 2 1 C2 3.97 2 6.94 2 10 C1.67 9.34 1.34 8.68 1 8 C0.34 8 -0.32 8 -1 8 C-0.67 5.36 -0.34 2.72 0 0 Z " fill="#EF9C28" transform="translate(337,221)"/>
<path d="M0 0 C2.31 0.33 4.62 0.66 7 1 C7 1.66 7 2.32 7 3 C4.69 3.66 2.38 4.32 0 5 C0 3.35 0 1.7 0 0 Z " fill="#C04E24" transform="translate(306,262)"/>
<path d="M0 0 C1.485 0.99 1.485 0.99 3 2 C2.34 3.98 1.68 5.96 1 8 C0.34 8 -0.32 8 -1 8 C-0.67 5.36 -0.34 2.72 0 0 Z " fill="#F09C2A" transform="translate(161,238)"/>
<path d="M0 0 C0.82638376 2.89234315 1 4.88742431 1 8 C0.34 8 -0.32 8 -1 8 C-1 7.34 -1 6.68 -1 6 C-1.66 6 -2.32 6 -3 6 C-2.67 4.68 -2.34 3.36 -2 2 C-1.34 2 -0.68 2 0 2 C0 1.34 0 0.68 0 0 Z " fill="#F96B0E" transform="translate(311,185)"/>
<path d="M0 0 C0.99 0.66 1.98 1.32 3 2 C2.67 3.32 2.34 4.64 2 6 C1.67 5.34 1.34 4.68 1 4 C0.34 4.66 -0.32 5.32 -1 6 C-1.33 4.35 -1.66 2.7 -2 1 C-1.34 0.67 -0.68 0.34 0 0 Z " fill="#C99C1B" transform="translate(211,352)"/>
<path d="M0 0 C2.6855594 2.6855594 3.06049974 5.37621328 4 9 C3.01 9 2.02 9 1 9 C0.45627049 5.94152152 0 3.11227195 0 0 Z " fill="#EC4F17" transform="translate(127,251)"/>
<path d="M0 0 C0.33 0.66 0.66 1.32 1 2 C-0.32 3.65 -1.64 5.3 -3 7 C-3.99 6.67 -4.98 6.34 -6 6 C-4.02 4.02 -2.04 2.04 0 0 Z " fill="#893920" transform="translate(103,233)"/>
<path d="M0 0 C2 4 2 4 1.75 6.125 C1 8 1 8 -1 10 C-0.67 6.7 -0.34 3.4 0 0 Z " fill="#CD6419" transform="translate(204,211)"/>
<path d="M0 0 C1.42944945 2.35438733 2.08661261 3.48032433 1.625 6.25 C1.41875 6.8275 1.2125 7.405 1 8 C0.34 8 -0.32 8 -1 8 C-1.125 2.25 -1.125 2.25 0 0 Z " fill="#F5931C" transform="translate(244,139)"/>
</svg>
